<svg data-v-6e8d9ed5="" version="1.1" id="Layer_1" xmlns="http://www.w3.org/2000/svg" xmlns:xlink="http://www.w3.org/1999/xlink" x="0px" y="0px" viewBox="0 0 650 850" xml:space="preserve" style="width: 100%; height: auto;"><g data-v-6e8d9ed5=""><path data-v-6e8d9ed5="" d="M202.47,677.99s0,.01,0,.02c0,0,.02,0,.02,0l-.02-.02Z" style="fill: rgb(255, 51, 161);"></path><path data-v-6e8d9ed5="" d="M238.01,575.44c.2,0,.41,.02,.61,.01,3.65-.15,3.98-.56,3.39-4.13-.27-1.6-.5-3.21-.78-4.81-.24-1.38-.34-2.83-1.76-3.68-.26-.16-.52-.52-.57-.82-.48-2.98-2.46-5.84-.35-9.01,.79-1.19,.25-2.78,.18-4.18-.07-1.5-.12-2.91,.65-4.33,.87-1.59,.69-3.25-.4-4.79-.89-1.25-1.21-2.47,.21-3.7,.58-.5,.94-1.33,1.24-2.08,1.04-2.58-.11-4.62-2.81-5.41-2.24-.66-4.38-2.02-3.53-4.69-.92-2.03-2.81-3.08-4.51-4.24-1.56-1.06-2.32-2.2-2.16-4.17,.18-2.25-1.09-3.66-3.76-4.28-1.75-.41-2.76-1.02-2.48-3.05,.17-1.19-.49-2.19-1.48-2.96-1.28-1.01-2.45-2.1-3-3.75-.45-1.34-1.06-2.46-2.86-2.71-1.55-.21-2.5-2.74-2.06-4.39,.2-.73,.49-.79,1.15-.49,2.94,1.35,3.07,1.36,3.79-1.67,.39-1.62,1.25-2.36,2.75-2.76,.61-.16,1.73-.01,1.66-1.09-.06-.92-.29-1.95-1.25-2.43-.94-.48-1.78,0-2.34,.7-1.27,1.62-2.95,1.49-4.65,1.19-1.82-.32-2.03-.87-.89-2.3,.57-.72,.93-1.49,1.07-2.38,.33-2.22-.45-3.13-2.66-3.15-.88,0-1.77,0-2.65,.01-.76,0-1.59,.04-1.9-.82-.32-.9-.02-1.69,.69-2.38,1.81-1.76,1.78-1.98-.41-3.05-2.47-1.21-3.3-3.5-3.9-5.89-.51-2.04-.64-4.15-.4-6.35,1.01,0,1.39,1,2.17,1.34,1.08,.47,1.68-.17,1.3-.94-2.01-4.09-1.49-8.85-3.51-12.89-1.42-2.83-3.75-4.4-7.01-4.4-1.55,0-2.99,.11-3.48,2.01-.14,.53-.57,.97-1.21,.87-.52-.08-.75-.54-.95-.98-.71-1.58-.08-3.32,1.5-4.1,.42-.21,.88-.37,1.28-.61,1.43-.84,1.5-1.61,.01-2.25-1.27-.54-1.87-1.32-2.1-2.6-.1-.58-.32-1.24-.7-1.67-1.53-1.73-2.54-3.8-3.86-5.65-1.23-1.71-2.94-2.94-3.42-5.31-.4-1.99-3.34-2.96-6.16-1.96-3.1,1.1-4.71-.25-6.23-2.55-.63-.95-1.52-1.72-2.19-2.65-.9-1.26-.79-2.57,.17-3.76,1.87-2.3,3.39-4.68,3.07-7.89-.11-1.04,.45-2.15,1.1-3.02,1.96-2.58,2.43-5.53,2.32-8.65-2.8-2.93-6.57-3.52-10.27-4.26-1.45-.29-2.93-.45-4.39-.67-.41-.05-.82-.09-1.23-.14-.96-.04-1.92-.08-2.88-.13l-4.05-.09c-.41,0-.82-.01-1.23-.02-1.11,.06-2.24,.52-3.32-.16-.25-.18-.51-.35-.76-.53l-.6-.41-.08-.06-1.39-1.05c-.14-.1-.28-.21-.42-.31-1.21-.58-2.42-1.15-3.63-1.73-.14-.06-.27-.12-.41-.17-.28-.21-.55-.43-.83-.64h0c-2.09-2.06-2.43-3.55-1.24-5.4,.02-.52,.03-1.04,.05-1.56-1.45-4.51-4.42-8.1-7.4-11.6-2.89-3.4-10.02-4.18-13.55-1.51-5.03,3.81-13.97,2.31-16.2-5.55-.36-1.26-.76-2.46-2.06-3.12-1.72-.87-2.8-.31-2.82,1.61-.04,3.12,.05,6.25,.02,9.37,0,.85,.28,1.33,.99,1.8,1.35,.89,2.77,1.79,2.38,3.84-.11,.55,.31,.88,.95,1.09,1.54,.51,1.94,2.05,.69,3.04-.99,.78-1.03,1.63-1.01,2.65,.04,2.47-.41,4.94,.99,7.31,.84,1.41-.24,2.88-2.29,3.24-1.43,.24-2.21,.82-2.83,2.14-.98,2.09-2.88,3.36-4.84,4.52-.63,.37-1.07,.35-1.62-.12-.67-.58-1.44-1.03-2.34-1.17-1.88-.28-2.99,.63-3,2.48,0,.75-.02,1.5,.02,2.24,.11,1.9,.34,3.79-1.98,4.74-.53,.22-.81,1.04-1.21,1.58-.01,1.22-.02,2.44-.04,3.66v.03c1.11,1.36,1.01,2.92,.59,4.44-.65,2.33-1.46,4.62-2.2,6.93,.13,.73-.68,1.29-.36,2.04,.64,.37,.48,1.04,.58,1.61,.07,.13,.15,.26,.22,.39,2.74,.3,3.1,.85,1.98,3.21-.33,.7-.33,1.41-.43,2.13,1.17,2.22,2.35,2.65,4.52,1.35,.86-.51,1.56-.7,2.45-.34,.84,1.61,1.35,3.32,1.59,5.11,.74,1.36,1.45,2.74,2.52,3.88,.34,.46,1.02,.67,.97,1.4l.3,.28c.22,.06,.45,.12,.67,.18l.1,.03c.15,.11,.3,.22,.44,.33h0c.66,.29,1.33,.58,1.99,.87,.28,.03,.55,.06,.83,.09,1.89,.32,1.12,2.08,1.68,3.11,.12,.07,.24,.15,.36,.22,.73,.5,1.47,.99,2.42,.6h0c.17-.6,1-.84,.87-1.6,.21-.92-.52-2.56,1.56-2.03h.03c1.92,.69,2.3,1.62,1.63,4.02-.02,.16-.04,.31-.06,.47-.44,2.12-.96,4.2-2.82,5.6-.18,.31-.35,.61-.53,.92-.36,1.07-.72,2.14-1.08,3.22-.25,2.14-.81,4.2-1.68,6.18-.09,.17-.17,.34-.26,.5l.05-.04c-.16,.69-.55,1.3-1.08,1.68-2.75,2.02-2.83,4.69-1.96,7.61,.3,.68,.59,1.35,.89,2.03,.14,.25,.28,.51,.41,.76,.16,.28,.33,.56,.49,.84l-.06-.05c.14,.17,.27,.35,.41,.52,.51,.68,1.05,.81,1.86,.35,.92-.52,1.93-.75,2.64,.42,.34,.23,.68,.45,1.02,.68,1.8,.41,3.34,.4,4.76-1.23,1.25-1.44,2.68-1.05,5.11,.85,.2,.13,.39,.25,.59,.38l.07-.11,.12,.05,.11,.09c.41,.17,.83,.35,1.24,.52,.26,0,.52,.02,.78,.03l.43-.32c.09-.12,.21-.15,.35-.11,1.05-.51,1.88-.37,2.59,.67,1.54,2.26,2.67,2.61,5.33,1.8,0-.16,.09-.24,.24-.25,.06-.13,.16-.2,.3-.22,.18-.1,.36-.21,.54-.31,1.16-.29,1.73,.03,1.75,1.36,.05,2.96,.1,2.96-3.35,3.96-.14,.09-.29,.18-.43,.27-.54,.44-1.08,.89-1.62,1.33-.16,.2-.32,.4-.47,.6,.02,.1-.03,.16-.13,.17v.03c-.69,1.37-1.42,2.72-2.02,4.12-.38,.89-.99,1.38-1.87,1.62-.02,.1-.08,.15-.18,.16h-.1c-.24,.16-.47,.31-.71,.47,0,0-.05,0-.05,0-.2,.15-.4,.29-.61,.44-1.2,1.3-3.33,2.19-1.99,4.59,1.08,1.85,1.07,3.77,.41,5.74-.05,.26-.09,.53-.14,.79-.29,.82-.59,1.64-.88,2.45-.72,1.46-1.17,2.93-.25,4.48,1.08,.93,2.1,1.92,3.25,2.75,.62,.45,.87,.9,.93,1.65,.13,1.56,.59,3.05,1.22,4.49,.87,1.97,1.88,3.67,4.28,4.15,1.32,.26,2.48,1.1,3.4,2.13,1.24,1.38,1.19,2.53-.19,3.77-1.23,1.1-1.54,2.56-1.47,4.07,.06,1.36-.26,2.21-1.59,2.85-1.88,.9-2.71,2.58-2.5,4.7,.08,.76,.34,1.32,1.07,1.8,2.33,1.56,2.79,3.73,1.51,6.34-1.56,3.18-1.23,5.36,1.13,8.11,1.16,1.36,1.66,2.76,.05,4.25-.99,.92-1.72,2.08-2.2,3.38-.78,2.15-.29,2.91,2,3.08,.33,.02,.66,.12,.99,.18,.11,.07,.23,.13,.34,.2,.14,.04,.27,.08,.41,.13,.43,.06,.66,.33,.78,.73l.02,.03c.07,.11,.15,.22,.22,.33,.24,.97,.17,1.94,.07,2.92,.07,1.2,.13,2.4,.2,3.61,.33,.22,.66,.44,1,.65,.82,.5,2.25,.2,2.51,1.28,.21,.88-1.04,1.4-1.4,2.27-.4,.96-.93,1.85-1.4,2.78-.31,1.67,.12,3.27,.43,4.88,.07,.82-.46,1.4-.83,2.05-.07,1.46-1.23,2.74-.43,4.38,.51,1.04,1.08,1.74,2.14,2.18,2.39,.98,2.66,1.85,1.49,4.15-.18,.35-.27,.75-.41,1.13-.38,2.1,.78,3.26,2.49,4.1,.86,2.91,3.83,4.62,4.46,7.6,.34,1.61,.65,3.14,1.7,4.44,1.04,1.18,1.18,2.09-.34,3.18-1.05,.75-1.66,2.1-2.47,3.18-.75,.99-.79,2.27-1.45,3.36-.71,1.18,.63,1.91,1.44,2.64,.57,.03,1.02,.25,1.29,.78h0c1.06,.86,1.83,1.9,2.01,3.3,.38,.36,.32,.83,.3,1.28,.21,.8,.18,1.61-.04,2.39-1.06,3.66-1.51,7.35-.83,11.15,.19,1.05,.14,2.15-.36,3.16,.12,1.66,1.55,2.83,1.69,4.48,.22,.56,.47,1.1,.66,1.67,.46,1.4-.06,2.82,.09,4.23,.24,2.25,1.66,3.41,3.71,4.04,1.74,.53,3,.43,3.93-1.52,.72-1.51,1.79-1.34,2.67,.21,1.23,2.17,1.27,4.83,2.83,6.87,.44,.3,.46,.8,.6,1.25,.05,.27,.09,.55,.14,.82,.88,2.06,.36,4.13-.77,5.72-1.41,1.96-1.08,3.52,.06,5.25,.26,.21,.52,.41,.79,.62,.1,.08,.2,.16,.3,.24,.16,.05,.31,.1,.47,.14,2.89,.07,5.47-.78,7.72-2.62,.01-.54,.03-1.08,.04-1.62-.67-.93-2.36-.89-2.38-2.46-.08-1.4,.38-2.61,1.3-3.66,.5-.65,1-1.31,1.51-1.96l.03-.06c1.36-2.4-.3-4.23-1.16-6.22,0-.13,.02-.26,.03-.39,0,0,0-.03,0-.03,0,0-.1-.08-.1-.08l.03-.12c-.38-.55-.19-1.15-.15-1.73,.06-.8,.16-1.5,1.29-.87,.69,.39,1.25-.11,1.68-.67,0,0,.03-.11,.03-.11,.22-1.72-.54-3.6,.79-5.15,.99-1.21,1.7-2.68,3.3-3.31,.66-.26,.95-.89,1.15-1.57,.66-2.16,.22-4.32,.09-6.48-.06-1-.53-2.07,.53-3.03,1.65,3.01,2.84,6.06,3.52,9.31,.02,.13,.04,.26,.07,.39,.03,.29,.06,.57,.09,.86,.23,2.41-.79,4.25-2.62,5.72,.23,1.67-.46,3.26-.44,4.9,.06,3.69,.54,7.3,2.04,10.72,.27,.22,.74,.2,.76,.69,0,0,.03,.03,.03,.03,.12,.13,.23,.25,.35,.38,0,0,.05,.09,.05,.09,.41,.25,.83,.5,1.24,.75,.14,0,.28-.02,.42-.02,.41-.11,.81-.22,1.22-.33,1.45,.39,1.92-1.5,3.25-1.4,.39-.38,.77-.76,1.16-1.14,.83-1.91,1.65-3.82,2.48-5.73,.08-.82-.24-1.72,.43-2.44,0-.68,0-1.35,0-2.03,0-.14,0-.27,0-.41-.2-.6,.01-1.27-.69-1.78-1.48-1.06-1.47-2.57-.92-4.14,.23-.54,.73-.61,1.21-.7,.38-.27,1.08-.53,1.09-.81,.08-2.28,1.77-3.08,3.39-4.04,.78-.46,1.28-1.33,1.36-2.2,.36-3.9,1.04-7.85-1.87-11.26-1.53-1.8-1.28-3.92,.73-5.31,1.43-.99,1.73-2.13,1.45-3.64-.5-2.75-2.26-4.99-2.86-8.17-.38,.74-.46,.99-.61,1.19-.36,.5,.14,1.62-.86,1.56-.74-.05-1.21-.78-1.49-1.53-.36-.93-.39-1.89-.15-2.81,.59-2.26,.6-4.57,.88-6.87,.09-.73,0-1.22-.64-1.75-1.51-1.25-1.75-2.85-.68-4.52,1.28-2.02,1.11-4.28,1.2-6.51,2.14,.44,3.15,1.61,3.45,3.89,.14,1.11,0,2.22-.37,3.22-2.18,5.84,.44,10.88,3.02,15.64,1.84,3.41,2.29,6.41,.65,9.81-.63,1.3-1.17,2.64-1.03,4.1,.12,1.32,.51,2.82,2.04,2.89,1.73,.08,1.97-1.59,1.91-2.82-.16-3.41,.66-6.6,1.7-9.77,.11-.32,.18-.67,.35-.95,2.3-3.99,1.74-7.35-2.09-10.11-.89-.64-.52-5.02,.45-5.84,2.4-2.02,3.34-4.55,2.92-7.62-.34-2.45,1.37-3.82,2.77-5.36,.23-.25,.56-.45,.91-.28,.5,.24,.63,.76,.54,1.22-.56,2.73-.95,5.48-.93,8.28,0,.39-.45,.8-.74,1.16-.77,.95-1.62,1.84-2.35,2.82-2.08,2.83-2.04,3.34,.18,6.07,1.48,1.81,2.62,3.81,3.06,6.13,.32,1.65,.15,3.15-.96,4.6-2.13,2.79-3,6.04-3.01,9.55,0,.63,.3,1.36-.42,1.87-2.12,1.52-1.74,3.45-.88,5.46,.81,1.89,1.39,3.84,1.35,5.91-.05,2.52-.6,4.83-2.77,6.49-1.37,1.05-2.24,2.53-3.01,4.06,.02,.48-.22,.78-.67,.91,0,.64,0,1.28,0,1.92,.4,.16,.4,.48,.35,.83-.28,1.15,1.52,1.99,.47,3.24,.67,.69,.99,1.5,.8,2.47-.03,.41-.05,.82-.08,1.22,.02,.14,.04,.28,.05,.42,.64,.22,.51,.72,.44,1.19,.6,.59,.62,1.44,.93,2.15,.86,1.2,1.73,2.4,2.59,3.6,1.89-.19,4.18,.59,5.06-2.07-.02-.27-.04-.54-.06-.82-.09-.1-.14-.21-.15-.34-.35-.33-.37-.76-.35-1.19-.33-.05-.67-.09-.7-.54-.14-.15-.31-.28-.4-.46-.48-.93-1.41-1.96-.41-2.93,.98-.94,2.21-.73,3.27,.14,0,0-.01-.01-.01-.01,.25,.05,.51,.11,.76,.16,1.43,.62,2.94,.85,4.49,.8,.55-.16,1.1-.23,1.66-.04,.27-.16,.55-.31,.82-.47,.68-.86,2.18-1.03,2.11-2.52,0-.27-.01-.55-.02-.82-.3-.53-.59-1.06-.89-1.59-.14-.12-.28-.25-.42-.37-.4-.42-.8-.84-1.2-1.27-.7-.36-1.25-.86-1.57-1.59-.06-.11-.09-.24-.1-.36-.14-.12-.28-.23-.42-.35-.72-.02-1.02-.7-1.58-1-.35,.09-.67,.13-.75-.35-.53-1.07-1.98-1.4-2.18-2.74-.48-.34-.42-.84-.37-1.33-.04-1.98-.29-4,1.21-5.64-.09-.11-.17-.22-.26-.33,.1-.03,.19-.06,.29-.09,.11-.05,.22-.07,.34-.08,.14-.18,.28-.37,.42-.55,2.04-.55,2.94,.39,2.89,3.02-.12,.16-.24,.33-.36,.49-.22,.54-.44,1.08-.65,1.62,.17,.66,.34,1.32,.5,1.98,.08,.05,.12,.12,.12,.21l.03-.05c.09,.22,.18,.45,.27,.67,.39,.53,.78,1.06,1.17,1.59,.06,.12,.12,.24,.18,.36,.94,.59,1.7,1.46,2.84,1.72,.29-.07,.38,.14,.46,.35,.25-.01,.51-.02,.76-.03,.6-.05,1.21-.15,1.64,.44,.27,.03,.54,.06,.82,.09,.4-.17,.8-.34,1.2-.52,.04-.76,.4-1.39,.78-2.02,1.17-1.21,2.03-.36,2.92,.43,1.63,1.46,3.36,1.98,5.3,.55,.43-.46,.86-.93,1.29-1.39-.16-1.58,.69-2.54,1.97-3.24,0,0,0,0,0,0,.32-.4,.76-.58,1.24-.69,.11-.1,.24-.12,.38-.08,.25-.04,.5-.08,.75-.12h.02c1.3-.53,2.96-.55,3.36-2.36,0-.27,.01-.55,.02-.82-.31-1.59-1.01-2.77-2.36-3.91-2.02-1.71-3.27-4.06-2.2-6.99,.77-2.12,.69-4.34,.37-6.56-1.3-1.71-3.1-2.57-5.13-3.04-1.08-.25-2.11-.59-1.56-1.98,.53-1.34,1.78-1.32,2.74-.74,1.29,.79,2.41,1.93,4.02,.89,1.75-1.12,2.39-2.86,2.52-4.86,.32-5.12-.64-10.1-2.56-14.74-2.32-5.61-1.06-10.39,2.41-14.83,1.84-2.37,2.58-4.42,.62-7.11-1.19-1.63-.65-2.41,1.43-2.86,1.51-1.09,2.6-2.57,3.7-4.03,1.64-2.19,.64-4.63-1.95-5.3-1.01-.26-2.57,.33-2.86-1.56-.43-2.83-.51-2.82,2.34-2.83Z" style="fill: rgb(255, 51, 161);"></path><polygon data-v-6e8d9ed5="" points="138.56 673.4 138.56 673.4 138.55 673.39 138.56 673.4" style="fill: rgb(255, 51, 161);"></polygon><path data-v-6e8d9ed5="" d="M146.24,674.64l-.03-.13c-.35-.3-.41-.71-.46-1.13-1.05-1.84-2.92-2.6-4.73-3.18-1.77-.57-2.28-1.57-2.58-3.29-.63-3.52,.06-7.17-1.18-10.6-.38-1.29-1.4-2.07-2.36-2.88,0,0-.03-.01-.03-.01-.67-.08-.54,.88-1.14,.89-.31,1.45,.15,2.74,.84,3.98,1,.14,1.18,1,1.03,1.65-.59,2.58-.13,5.23-.7,7.79,0,.4-.02,.81-.03,1.21,0,.54,0,1.09,0,1.63,.15,.94,1.18,.76,1.64,1.29,1.26-.25,1.66,.64,2.06,1.54,1.08,.97,1.75,2.19,2.23,3.54,.25,.69,.43,1.44,1.14,1.85,0,0,.17-.02,.17-.02l.14,.1c.12,.08,.25,.15,.37,.23,.14,.05,.28,.09,.43,.14,1.31,.09,2.6,.16,3.19-1.39,0,0-.02,.02-.02,.02,.67-1.07,.36-2.15,.03-3.23Z" style="fill: rgb(255, 51, 161);"></path><text data-v-6e8d9ed5="" transform="matrix(1 0 0 1 144.4893 557.424)" class="st1 st2">খুলনা</text></g><g data-v-6e8d9ed5=""><path data-v-6e8d9ed5="" d="M506.65,307.75s-.01,.03-.02,.04c0,.03,0,.06,0,.06v-.1Z" style="fill: rgb(51, 255, 209);"></path><path data-v-6e8d9ed5="" d="M545.21,253.58c-2.21-.07-2.09-1.61-1.98-3.15,0,0-.06-.05-.06-.05-.27,0-.54,0-.81,.01-1.87,.53-2.92-.45-3.69-1.98-.81-1.61-1.07-3.37-1.09-5.11-.01-1.7-.84-2.58-2.22-3.26-1.66-.83-3.51-.93-5.24-1.47-.27,0-.54-.01-.81-.02-1.3-1.02-.94-2.6-1.32-3.93-2.57,.36-5.15,1.25-7.7-.08-.48,.09-.86-.11-1.17-.46-2.67-.94-4.25-3.07-5.74-5.28-.41-.62-.71-1.3-1.59-1.32-.82-.02-1.63-.03-2.45-.05-1.6-.15-3.6,.91-4.45-1.49-1.18-1.43-2.85-2-4.53-2.54-.82-.23-1.64-.46-2.46-.69-.13-.02-.27-.04-.4-.06-1.22-.14-2.43-.28-3.65-.42-2.19-.02-4.37-.04-6.56-.06-.94,.03-1.89,.06-2.83,.1-.23,.02-.46,.03-.69,.05-.96,.37-1.97,.37-2.98,.32-3.02,.42-6.04,.83-9.06,1.25-2.38,.52-4.76,1.04-7.14,1.55-.33,.07-.76,.21-.95-.11-1.5-2.56-2.91-.81-4.04,.24-.97,.89-1.65,1.13-2.64,.23-.64-.58-1.46-.65-2.28-.73-.12,.04-.24,.07-.36,.08-.52,.57-.77,1.27-.96,2.01-.03,.27-.06,.54-.09,.81-1.19,2.31-3.41,2.22-5.53,2.35-.41-.02-.81-.03-1.22-.05-.28-.07-.56-.13-.84-.2-.94,.08-1.72-.29-2.46-.81-1.11-1.55-1.32-3.59-2.74-4.97-1.73-.86-2.1,1.34-3.38,1.5-.56,.33,.34,1.1-.41,1.38,.17,.89-.48,.76-.98,.76-1.72,0-3.43-.03-5.15-.05l-.17,.08-.18-.05c-.26,.03-.51,.07-.77,.1-.55,.97-1.34,.99-2.23,.55-.54-.26-1.09-.85-1.59-.8-5.16,.49-9.43-3.74-14.72-2.65-1.53,.31-2.4-1.26-3.46-2.12-2.33-1.88-4.78-3.41-7.94-3.18-.79,.3-1.05,1.3-1.94,1.47-6.54,0-13.07,0-19.61,.01-.8,.04-1.6,.08-2.4,.12-4.29,3.14-9.13,4.55-14.41,4.6,.18,1.98-.18,3.93-.33,5.89-.14,1.78,.38,3.29,2.17,3.96,1.19,.44,1.32,1.19,1.04,2.22-.27,.99-.6,1.92-1.36,2.69-1.19,1.22-2.1,2.67-2.88,4.18-1.27,2.44-1.57,4.77,.39,7.18,1.88,2.31,3.24,4.98,4.52,7.7,2.07,4.4,5.75,7.04,11.07,3.78,1.14-.7,2.42-1.27,3.71-1.63,3.42-.96,5.47,.43,5.77,3.94,.11,1.32,.41,2.52,1,3.68,1.6,3.15,1.79,6.56,1.47,9.94-.17,1.77-1,3.46-.77,5.35,.12,1.02,.46,1.44,1.5,1.4,1.7-.06,3.4,.01,5.09-.02,1.52-.03,2.35,.88,2.96,2.09,.59,1.17,.41,2.18-.6,3.1-.81,.74-1.46,1.74-1.46,2.84,.01,1.34-.45,2.18-1.66,2.69-.98,.41-1.05,1.03-.5,1.93,1.07,1.74,2.12,3.53,3.63,4.89,1.57,1.41,1.4,2.93,.81,4.62-.69,1.99-2.13,3.43-3.45,4.98-.6,.71-1.23,1.59-.73,2.59,.47,.94,1.45,1.13,2.42,1.25,1,.12,2.24-.38,2.68,1.16,.41,1.44,.58,2.74-.51,4.01-1.43,1.67-1.13,2.96,.82,4.08,1.87,1.08,2.15,2.28,.51,3.61-1.58,1.29-1.59,2.26-.17,3.62,.75,.71,.72,1.72,.06,2.61-.6,.8-1.32,1.1-2.3,.64-.42-.2-.9-.31-1.37-.39-2.98-.52-4.85,1.23-4.48,4.21,.11,.87,.27,1.74,.41,2.6,.86,2.86,3.17,3.96,5.7,5,4.28,1.75,6.03,1.36,8.66-2.39,1.57-2.24,3.29-2.38,5.2-.43,1.34,1.38,1.1,2.32-.74,2.8-1.14,.3-1.98,.96-2.3,2.09-.38,1.34,0,2.32,1.58,2.38,.87,.03,1.76-.26,1.87,1.14,.11,1.33-.48,1.74-1.67,2.01-2.19,.51-2.41,1.37-1.89,3.56,.89,3.72,1.75,7.47,2.17,11.26,.28,2.52-.21,5.14-.36,7.71,1.38,1.47,3.23,1.64,5.06,1.61,1.26-.02,1.94-1.06,2.19-2.13,.78-3.36,1.55-6.71-.43-10.01-1.32-2.2,.03-4.36,2.51-4.32,.68,0,1.36,.03,2.04,.02,2.11-.06,3.91,.26,5.78,1.7,4.11,3.15,15.62,2.24,19.59-1.15,1.09-.93,1.69-2.03,1.75-3.51,.12-3.26,.36-6.51,.55-9.77,.05-.9,.15-1.76,1.04-2.29,1.36-.8,2.3-.37,2.4,1.19,.17,2.53,.56,5.01,1.82,7.25,1.38,2.46,4.4,3.05,6.6,1.26,1.37-1.11,2.02-2.49,1.12-4.3-.77-1.56-.84-3.29-.8-4.98,.03-1.18,.47-2.29,1.68-2.8,1.19-.5,1.83,.31,2.59,1.05,1.11,1.1,2.37,1.42,3.85,.44,1.58-1.05,2.2-.73,2.53,1.15,.35,2.01,1.23,3.71,2.74,5.08,1.19,.22,.88,1.16,.95,1.93,.11,1.17,.24,2.3,1.78,2.52,1.41,.21,2.39-.35,3.06-1.51,1.45-2.48,1.72-5.28,1.88-8.05,.23-4.07,.29-8.15-.25-12.21-.06-.47-.06-.95-.04-1.42,.06-1.33,.25-2.7,1.76-3.12,1.44-.4,2.65,.12,3.45,1.47,.31,.52,.73,.99,1.17,1.4,.74,.68,1.58,1.23,2.45,.22,.81-.94,.33-1.77-.42-2.48-.63-.6-1.44-1.01-1.85-1.86-.45-.93-1.04-1.96-.31-2.86,.81-1,2.2-1.1,3.18-.51,3.23,1.92,6.61,1.72,10.07,1.14,2.86-1.09,4.85-3.02,5.77-5.98,.14-1.52,.28-3.05,.43-4.57-.27-.65-.55-1.29-.44-2.02-.1-.39-.19-.78-.29-1.17-.03-.29-.06-.58-.09-.88-.02-.41-.04-.81-.06-1.22-.17-1.26-.24-2.51,.4-3.68-.02-.33,0-.65,.34-.84,.08-.18,.16-.36,.25-.54,0-.02,0-.04,0-.04,.21-.21,.43-.42,.64-.63,.37-.6,.9-.9,1.61-.88,3.4-.95,4.92-3.59,4.83-6.7-.18-6.51,2.12-12.24,5-17.78,1.46-2.82,1.55-5.69,1.65-8.65,.08-2.55,.39-5.07-1.34-7.38-.88-1.17-.91-2.82-1.04-4.3-.25-2.78,.12-3.27,2.93-3.63,5.08-.63,8.78,1.75,11.59,5.67,1.39,1.93,2.97,3.1,5.4,2.92,1.48-.11,2.8-.4,3.41-2.04,.17-.46,.7-.78,1.07-1.17,.04-.15,.13-.23,.29-.23l-.02,.03c.18-.11,.35-.22,.53-.33h0c.2-.3,.47-.38,.81-.3,.28-.03,.55-.07,.83-.1h0c.39-.3,.79-.61,1.18-.91,.14-.3,.28-.6,.43-.89,1.41-2.7,.92-5.48-1.21-6.88Z" style="fill: rgb(51, 255, 209);"></path><path data-v-6e8d9ed5="" d="M527.97,234.6s0,.02,0,.02c0,0,.01,0,.02,0,0,0-.02-.02-.02-.02Z" style="fill: rgb(51, 255, 209);"></path><text data-v-6e8d9ed5="" transform="matrix(1 0 0 1 409.3027 290.0322)" class="st1 st2">সিলেট</text></g><g data-v-6e8d9ed5=""><path data-v-6e8d9ed5="" d="M396.48,288.37c-.61-1.21-1.44-2.12-2.96-2.09-1.7,.03-3.4-.04-5.1,.02-1.04,.03-1.37-.39-1.5-1.41-.23-1.88,.6-3.57,.77-5.34,.33-3.38,.13-6.79-1.47-9.94-.58-1.16-.89-2.36-1-3.68-.29-3.51-2.35-4.91-5.77-3.95-1.29,.37-2.56,.93-3.71,1.64-5.31,3.26-9,.62-11.07-3.78-1.28-2.73-2.64-5.39-4.52-7.71-1.95-2.41-1.65-4.73-.38-7.18,.78-1.5,1.69-2.95,2.88-4.17,.76-.77,1.09-1.7,1.36-2.69,.28-1.03,.15-1.78-1.04-2.22-1.79-.67-2.31-2.18-2.17-3.96,.15-1.96,.51-3.91,.33-5.89-2.9,.02-5.5,1.46-8.35,1.73-1.14,.1-2.3,.2-3.44,.16-1.49-.06-2.67-.6-3.52-2.01-1.28-2.15-2.35-2.3-4.51-1.09-1.12,.62-2.28,1.23-3.48,1.65-2.27,.79-4.28,.64-6.02-1.46-1.96-2.35-4.4-2.58-6.36-.46-2.25,2.42-4.65,1.92-7.21,1.09-1.15-.37-2.27-.84-3.5-.96-1.11,.53-2.12-.46-3.32-.16-1.43,.36-2.66,.79-3.87,1.73-2.7,2.11-5.64,3.17-8.74,.58-.87,.02-1.75,.02-2.63,.08-1.65,.1-3.05-.18-3.53-2.06-.54-.42-1.07-.84-1.61-1.25-.79-.33-1.58-.67-2.37-1-.29-.09-.58-.18-.86-.28-.53,.15-.8-.32-1.2-.48-2.6,.12-5.08-.8-7.67-.95-1.65-.1-3.34-.09-4.98-.41-1.23,.21-2.43,.03-3.63-.25-1.18,.03-2.29-.24-3.31-.84-.79-.05-1.43-.44-2.04-.9-.14-.09-.27-.19-.41-.29-1.09-.27-2-1-2.54-1.83-1.28-1.96-3.04-2.8-5.26-2.94-.39-.07-.78-.15-1.17-.22-3.45-.77-6.3-2.67-8.92-4.92-.77-.65-1.55-1.02-2.5-1.12-2.61-.35-4.72,.63-6.88,2.06-3.4,2.24-6.04,1.2-6.24-2.8-.21-4.03-2.26-7.77-1.54-11.87-.67-.13-1.33-.28-2-.39-3.08-.53-4.98,.67-5.99,3.74-.2,.64-.38,1.35-.79,1.84-2.56,3-2.48,6.1-.89,9.57,.85,1.85,.68,4-.75,5.77-.13,1-.18,2-.75,2.92-.56,.91-.31,1.54,.94,1.5,1.16-.05,2.22,.27,2.52,1.56,.29,1.26-.2,2.52-1.32,2.93-3.26,1.17-3.49,4.78-5.72,6.73-.46,.4-.33,1-.34,1.54-.04,2.29-.46,4.47-1.97,6.28-.6,.73-.35,1.54-.45,2.33-.06,.54-.09,1.14-.72,1.34-.53,.17-.88-.18-1.19-.57-.95-1.18-1.66-.75-2.38,.29-1.78,2.58-1.74,3.61,.32,5.73,1.26,1.28,1.33,3.15,.16,4.56-.95,1.16-1.91,2.31-2.01,3.9-.05,.89,.03,1.69,1.25,1.58,.15-.11,.31-.22,.46-.34,.2-.26,.34-.62,.79-.51,.74-.61,.65-1.65,1.19-2.36,.06-.58,.44-.92,.91-1.19,.26-.24,.52-.48,.78-.72,.7-.3,1.3-.43,1.15,.7,.13,1.44-.86,2.63-.92,4.03-.05,.32-.11,.64-.16,.97,.2,2.9,.19,5.85,.66,8.71,.71,4.33,2.72,7.77,7.35,9.06,2.24,.63,3.91,2.17,5.21,4.06,1.56,2.24,1.35,4.76-.69,6.59-.96,.86-1.15,1.7-1,2.86,.2,1.49,.46,2.95,.9,4.39,.83,2.74,1.95,5.38,2.81,8.12l2.54-.1,2.29-5.47c.03-.12,.15-.32,.3-.48,.15-.16,.34-.28,.54-.36l3.89-1.98c.12-1.52,.11-3.06-.05-4.57-.4-1.28-.85-3.38-.91-3.61-.05-.22-.05-.47,.01-.7,.05-.22,.15-.44,.3-.63,.15-.19,.34-.34,.56-.44,.21-.1,.45-.15,.69-.15h3.96l6.17,.46,3.9-.4,1.32-1.01,1.5-2.75c.06-.13,.19-.31,.36-.45,.15-.14,.33-.24,.54-.31l4.94-1.53c.25-.07,.49-.09,.74-.05,.27,.05,.5,.15,.71,.3,.24,.2,.4,.42,.49,.66,.1,.23,.14,.48,.12,.74-.19,1.52,.07,3.12,.33,3.33,1.37,.67,2.8,1.25,4.23,1.71,.24,.07,.46,.21,.64,.39,.2,.2,.33,.42,.41,.66,.58,2.06,1.01,4.16,1.29,6.26-.11,2.94-.38,5.81-.8,8.63v.29s-.11,2.86-.11,2.86l5.82,6.79,4.09,5.54c.2,.29,.31,.62,.31,.95v5.67l3.15,6.42c.17,.43,.18,.82,.04,1.19l-.98,4.65c0,.06,0,.11,0,.17,.05,.72,.18,1.51,.38,2.28,.68,2.19,1.54,4.38,2.55,6.48l5.26-.74,9.57,.22,5.41-5.73c.15-.18,.41-.35,.7-.44,.29-.09,.61-.09,.9,0l2.93,.81c.25,.04,.54,.21,.76,.45l3.88,3.93,2.34,3.1,8.78,2.01h2.42l-.16-4.06-1.24-6.28-.02-3.4-.14-6.27-2.68-2.07-3.51-2.29c-.3-.2-.53-.5-.64-.84-.12-.35-.11-.73,.03-1.07l1.52-3.93c.16-.38,.44-.69,.8-.86s.77-.2,1.16-.08l5.93,1.88,3.92,.33,.99-2.55c.12-.26,.25-.44,.42-.59,.16-.14,.35-.25,.57-.32,.25-.15,.84-.15,1.24,.05l4.14,2.63,1.72-2.37c.08-.14,.24-.29,.41-.41,.19-.11,.38-.19,.59-.22l4.19-.85,1.33-5.8,.83-4.14c.04-.29,.21-.6,.44-.83,.22-.23,.52-.38,.85-.44l1.33-.17c.14-.04,.39-.04,.62,.01l1.72,.58,2.49-.66,3.3-.66,2.22,.26,1.6-1.09c.34-.18,.6-.25,.88-.27l4.4,.27,2.61,.75,3.1,.14,1.98-.78,.99-1.03c.17-.19,.43-.36,.73-.43,.28-.08,.58-.07,.88,.03l3.09,.84,3.62,.54c.09-.03,.17-.07,.25-.13,.33-.52,1.26-2.15,1.79-3.12,.12-.22,.29-.41,.51-.56,.21-.14,.46-.23,.72-.26l2.32-.19c.18-.04,.45-.04,.7,.04l1.68,.78c.12-.09,.27-.17,.45-.25,.61-.25,1.03-.58,1.29-1.03l-.27-.23,.39-.02c.18-.39,.25-.85,.25-1.4-.01-1.09,.64-2.09,1.46-2.84,1.01-.92,1.19-1.92,.6-3.1Z" style="fill: rgb(197, 227, 255);"></path><text data-v-6e8d9ed5="" transform="matrix(1 0 0 1 238.5103 270.8945)" class="st1 st2">ময়মনসিংহ</text></g><g data-v-6e8d9ed5=""><path data-v-6e8d9ed5="" d="M291.05,223.59l-.03-.02s.02,.01,.02,.02c0,0,0,0,0,0Z" style="fill: rgb(255, 87, 51);"></path><path data-v-6e8d9ed5="" d="M394.17,295.71l-.39,.02,.27,.23c.05-.08,.09-.16,.12-.25Z" style="fill: rgb(255, 87, 51);"></path><path data-v-6e8d9ed5="" d="M398.44,330.12c1.63-1.34,1.36-2.54-.52-3.62-1.94-1.11-2.25-2.4-.82-4.07,1.09-1.28,.93-2.58,.52-4.01-.44-1.55-1.68-1.05-2.68-1.16-.97-.12-1.95-.31-2.42-1.25-.51-1,.12-1.88,.73-2.59,1.32-1.55,2.76-3,3.45-4.98,.59-1.7,.76-3.21-.81-4.63-1.51-1.36-2.56-3.15-3.63-4.89-.17-.27-.28-.53-.32-.75-.07-.37,.04-.67,.37-.93l-1.68-.78c-.25-.08-.52-.08-.7-.04l-2.32,.19c-.26,.03-.51,.12-.72,.26-.22,.15-.39,.34-.51,.56-.53,.97-1.46,2.6-1.79,3.12-.08,.06-.16,.1-.25,.13l-3.62-.54-3.09-.84c-.3-.1-.6-.11-.88-.03-.3,.07-.56,.24-.73,.43l-.99,1.03-1.98,.78-3.1-.14-2.61-.75-4.4-.27c-.28,.02-.54,.09-.88,.27l-1.6,1.09-2.22-.26-3.3,.66-2.49,.66-1.72-.58c-.23-.05-.48-.05-.62-.01l-1.33,.17c-.33,.06-.63,.21-.85,.44-.23,.23-.4,.54-.44,.83l-.83,4.14-1.33,5.8-4.19,.85c-.21,.03-.4,.11-.59,.22-.17,.12-.33,.27-.41,.41l-1.72,2.37-4.14-2.63c-.4-.2-.99-.2-1.24-.05-.22,.07-.41,.18-.57,.32-.17,.15-.3,.33-.42,.59l-.99,2.55-3.92-.33-5.93-1.88c-.39-.12-.8-.09-1.16,.08s-.64,.48-.8,.86l-1.52,3.93c-.14,.34-.15,.72-.03,1.07,.11,.34,.34,.64,.64,.84l3.51,2.29,2.68,2.07,.14,6.27,.02,3.4,1.24,6.28,.16,4.06h-2.42l-8.78-2.01-2.34-3.1-3.88-3.93c-.22-.24-.51-.41-.76-.45l-2.93-.81c-.29-.1-.61-.1-.9,0-.29,.09-.55,.26-.7,.44l-5.41,5.73-9.57-.22-5.26,.74c-1.01-2.1-1.87-4.29-2.55-6.48-.2-.77-.33-1.56-.38-2.28,0-.06,0-.11,0-.17l.98-4.65c.14-.37,.13-.76-.04-1.19l-3.15-6.42v-5.67c0-.33-.11-.66-.31-.95l-4.09-5.54-5.82-6.79,.1-2.86v-.29c.43-2.82,.7-5.69,.81-8.63-.28-2.1-.71-4.2-1.29-6.26-.08-.24-.21-.46-.41-.66-.18-.18-.4-.32-.64-.39-1.43-.46-2.86-1.04-4.23-1.71-.26-.21-.52-1.81-.33-3.33,.02-.26-.02-.51-.12-.74-.09-.24-.25-.46-.49-.66-.21-.15-.44-.25-.71-.3-.25-.04-.49-.02-.74,.05l-4.94,1.53c-.21,.07-.39,.17-.54,.31-.17,.14-.3,.32-.36,.45l-1.5,2.75-1.32,1.01-3.9,.4-6.17-.46h-3.96c-.24,0-.48,.05-.69,.15-.22,.1-.41,.25-.56,.44-.15,.19-.25,.41-.3,.63-.06,.23-.06,.48-.01,.7,.06,.23,.51,2.33,.91,3.61,.16,1.51,.17,3.05,.05,4.57l-3.89,1.98c-.2,.08-.39,.2-.54,.36-.15,.16-.27,.36-.3,.48l-2.29,5.47-2.54,.1c.24,.74,.46,1.49,.64,2.25,.02,.08,.04,.16,.06,.24,.07,.28,.15,.55,.26,.82,.37,1.01,.95,1.95,1.64,2.76,2.13,2.49,2.04,5.16,1,8.03-.41,1.14-.98,1.97-2.16,2.5-2.13,.97-3.5,2.59-3.38,5.08,.05,.91-.58,1.32-1.06,1.86-2.01,2.3-2.02,3.98,.02,6.22,.99,1.09,1.47,2.05,.49,3.57-1.49,2.3-.86,4.83,1.38,6.94,2.16,2.05,1.7,1.89,.7,4.74-1.08,3.09-2.93,5.4-5,7.76-1.29,1.48-.78,4.25,.71,5.78,2.17,2.23,2.26,3.01,.48,5.62-1.22,1.79-2.61,3.48-3.74,5.33-2.14,3.5-2.75,7.29-1.68,11.29,.31,1.18,.74,2.33,1.02,3.52,.56,2.42,1.12,4.72,2.99,6.69,1.7,1.79,2.25,4.41,2.03,6.87-.22,2.59,.99,4.25,2.67,5.82,4.05,3.81,8.73,6.71,13.66,9.17,3.21,1.6,5.7,3.88,7.77,6.71,1.01,1.39,2.24,2.5,3.59,3.55,6.21,4.84,12.38,9.74,18.56,14.64,.41,.33,1.1,.76,1.08,1.12-.08,2.33,1.8,2.86,3.26,3.77,4.89,3.05,9.37,6.8,14.71,9.05,6.93,2.93,14.32,4.18,21.69,5.39,4.06,.68,7.62-1.42,9.37-5.02,.17-.36,.41-.76,.4-1.14-.07-4.14-.19-8.28-.27-12.43-.02-.78-.47-.82-1.07-.82-1.23,.01-2.45,0-3.67-.07-1.02-.06-2.03-.27-2.87-.9-.54-.4-1.2-.82-.78-1.65,.4-.79,1.06-.7,1.75-.4,.12,.06,.26,.09,.38,.14,2.42,.93,3.58,.57,4.8-1.69,.56-1.03,1.1-2.03,2.1-2.7,1.44-.97,2.91-1.72,4.74-1,.89,.35,1.86,.18,2.43-.56,.69-.9-.32-1.27-.83-1.74-.58-.53-.58-1.22-.47-1.89,.26-1.59,.9-3.09,.81-4.78-.05-.96,.81-1.6,1.81-1.55,1.03,.06,2.48-.11,2.69,1.21,.2,1.29,.9,1.28,1.79,1.38,1.01,.12,2.04,.21,3.01,.48,.95,.26,1.75,.32,2.35-.56,.68-1,.99-2.14,.54-3.29-.41-1.04-1.45-.6-2.16-.54-1.74,.16-2.29-.88-1.56-2.03,2.13-3.37,2.01-7.76,5.09-10.69,1.49-1.43,1.14-2.8-.74-3.95-2.29-1.4-2.44-2.53-.67-4.65,.68-.81,1.51-1.37,2.41-1.84,.82-.43,1.54-.92,1.71-1.88,.16-.86,.69-1.2,1.45-.94,.92,.33,.65,1.33,.37,1.72-1.13,1.59,.03,1.42,1.05,1.95,3,1.54,4.29-1,6.06-2.31,.76-.56,.44-1.64,.19-2.49-.35-1.17-.84-2.31-.8-3.56,.03-.79,.22-1.56,1.19-1.61,1.06-.06,.99,.88,.92,1.46-.36,2.71,2.01,4.44,2.38,6.9,.09,.6,.85,1.12,1.61,1.01,.86-.11,1.62-.65,1.7-1.53,.24-2.74,1.92-4.27,4.1-5.67,2.54-1.62,2.91-4.45,3.22-7.18,.09-.8,.02-1.63,.02-2.44-.02-3.89,1.36-6.95,4.94-8.91,4.06-2.22,4.14-5.61,.29-8.23-1.02-.69-1.99-1.46-2.61-2.53-.88-1.51-1.51-.94-2.15,.15-.13,.23-.19,.5-.3,.75-.3,.67,.08,1.9-1.04,1.89-1.01-.01-.75-1.09-.86-1.78-.06-.35-.22-.74-.61-.66-.27,.06-.51,.39-.7,.66-.28,.4-.21,1.14-.99,1.05-.34-.04-.67-.18-.75-.57-.16-.72,.41-1.05,.74-1.55,.9-1.39,2-1.8,3.69-1.63,1.8,.17,2.74-1.09,2.55-3.35-.13-1.69,.58-2.33,2.04-2.67,.31,1.24-.87,3.13,.64,3.47,1.4,.33,1.53-1.76,2.25-2.76,.43-.6,.79-1.26,1.2-1.89,.45-.68,1-.91,1.66-.24,.81-.12,1.67-.19,2.39,.19,1.36,.74,1.56,.03,1.71-1.1,.11-.81,.12-1.8,1.4-1.86,2.27-.12,4.09-1.12,5.56-2.88,.73-.87,1.67-1.56,2.72-2.06-.14-.87-.31-1.73-.41-2.6-.37-2.99,1.49-4.74,4.47-4.22,.47,.09,.95,.19,1.37,.39,.98,.47,1.7,.17,2.3-.63,.67-.89,.69-1.89-.05-2.61-1.42-1.36-1.42-2.32,.17-3.61Z" style="fill: rgb(255, 87, 51);"></path><path data-v-6e8d9ed5="" d="M342.44,428.38c-.92-.69-1.83-1.39-2.74-2.09-3.44,.22-6.9,.18-10.33,.63-1.61,.21-1.42,.86-.67,1.79,1.7,2.11,1.11,3.88-1.45,4.56-1.89,.5-4.34,.78-4.93,2.77-.85,2.86-1.43,5.93-.79,8.99,.32,1.5,1.23,2.04,2.7,1.33,1.03-.5,2.04-1.12,3.2-1.25,.77-.08,1.31-.21,1.22-1.16-.08-.85,.54-1.01,1.2-.97,.6,.04,1.48-.51,1.71,.48,.2,.85,.42,1.48,1.43,1.11,.87-.31,1.51-.8,1.45-1.92-.07-1.35,.02-2.71,.04-4.06-.55-1.62,.13-2.55,1.72-2.71,2.06-.21,2.95-1.33,2.96-3.3,.01-1.89,.6-3.17,2.85-2.7,.54,.11,.93-.12,1.09-.66,.17-.59-.36-.6-.66-.82Z" style="fill: rgb(255, 87, 51);"></path><path data-v-6e8d9ed5="" d="M319.62,473.12c-.71-.65-1.42-.9-2.37-.85-2.79,.12-5.57,0-8.29-.7-3.81-.99-7.34-2.35-9.29-6.22-.8-1.58-2.24-2.69-3.76-3.66-.91-.58-2.02-.76-2.85-1.54-2.54-2.37-5.62-3.75-8.95-4.58-1.02-.25-1.89-.68-2.59-1.49-2.08-2.41-2.87-2.42-4.99-.13-1.47,1.58-4.89,2.14-6.8,1.15-.93-.48-1.45-1.2-.84-2.11,.57-.87,1.44-.96,2.19-.04,.47,.58,1.09,.75,1.81,.72,1.59-.07,3.3-1.65,3.29-3.07-.01-1.34-1.91-3.06-3.56-3.07-1.84-.02-3.66-.08-5.48-.38-.82-.14-1.31-.47-1.65-1.25-1.31-2.97-3.57-5.11-6.31-6.72-1.72-1.01-3.18-2.28-4.65-3.58-1.42-1.25-2.96-2.37-4.49-3.49-1.35-.99-2.83-1.49-4.57-1.36-1.48,.11-3.22,.44-4.42-.18-2.34-1.21-4.78-1.41-7.26-1.7-2.62-.31-3.78-1.91-3.33-4.54,.14-.8,.42-1.57,.58-2.37,.48-2.33,.6-4.52-1.43-6.37-1.08-.99-1.86-2.3-2.16-3.85-.2-1.02-.83-2.02-1.88-2.25-2.91-.64-4.48-2.89-6.32-4.86-.46-.49-.84-.99-1.66-.99-3.88,0-7.71-.58-11.54-1.16-.8-.12-1.4,0-2.08,.45-4.55,2.93-9.49,3.33-14.43,1.44-5.96-2.28-11.03-6.05-15.54-10.55,.1,3.12-.36,6.07-2.32,8.65-.66,.86-1.21,1.98-1.1,3.02,.32,3.2-1.2,5.58-3.07,7.89-.96,1.18-1.08,2.5-.17,3.76,.67,.93,1.56,1.7,2.19,2.65,1.51,2.3,3.12,3.65,6.23,2.55,2.82-1.01,5.76-.03,6.16,1.96,.48,2.37,2.19,3.6,3.42,5.31,1.33,1.85,2.33,3.92,3.86,5.65,.38,.43,.6,1.09,.7,1.67,.23,1.28,.83,2.06,2.1,2.6,1.49,.64,1.42,1.4-.01,2.25-.41,.24-.86,.4-1.28,.61-1.58,.78-2.22,2.52-1.5,4.1,.2,.44,.42,.9,.95,.98,.65,.1,1.08-.34,1.21-.87,.48-1.9,1.92-2.01,3.48-2.01,3.26,0,5.59,1.57,7.01,4.4,2.03,4.04,1.5,8.8,3.51,12.89,.38,.76-.22,1.41-1.3,.94-.78-.34-1.16-1.33-2.17-1.34-.24,2.2-.11,4.31,.4,6.35,.6,2.39,1.43,4.69,3.9,5.89,2.2,1.07,2.23,1.29,.41,3.05-.71,.69-1.01,1.48-.69,2.38,.3,.86,1.14,.82,1.9,.82,.88,0,1.77-.02,2.65-.01,2.21,.01,2.99,.93,2.66,3.15-.13,.89-.5,1.66-1.07,2.38-1.13,1.43-.93,1.99,.89,2.3,1.7,.3,3.38,.43,4.65-1.19,.56-.71,1.4-1.18,2.34-.7,.95,.49,1.18,1.51,1.25,2.43,.07,1.08-1.05,.93-1.66,1.09-1.51,.4-2.36,1.14-2.75,2.76-.72,3.02-.85,3.02-3.79,1.67-.67-.31-.96-.25-1.15,.49-.44,1.65,.51,4.18,2.06,4.39,1.79,.25,2.4,1.36,2.86,2.71,.55,1.65,1.72,2.74,3,3.75,.99,.78,1.64,1.77,1.48,2.96-.28,2.03,.73,2.65,2.48,3.05,2.67,.62,3.94,2.03,3.76,4.28-.16,1.96,.6,3.11,2.16,4.17,1.7,1.16,3.59,2.21,4.51,4.24,2.09,1.51,4.23,2.93,6.71,3.75,4.92,1.62,8.64,.14,11.06-4.42,1.49-2.81,3-5.62,4.46-8.44,.46-.89,.83-1.6,2.1-1.24,.86,.24,1.89-.41,1.88-1.17-.04-2.98,1.9-4.4,4.03-5.8,.37-.24,.74-.71,.83-1.13,.41-2.13,2.08-2.77,3.81-3.41,.7-.25,1.34-.64,2.02-.95,1.38-.62,2.96-1.39,4.08,.09,1.11,1.46,3.44,2.48,1.79,5.24-1.48,2.48-.64,4.96,1.4,5.99,.91,.46,1.85,.84,2.79,1.22,1.82,.74,3.53,.47,4.88-.92,1.22-1.26,2.23-2.71,3.34-4.07,.49-.6,.03-.99-.29-1.41-.93-1.21-1.85-2.42-2.87-3.75,1.01-.31,1.78-.56,2.56-.78,.54-.15,.92-.27,1.07-.98,.45-2.17,2.03-2.59,3.65-1.02,2,1.94,4.04,3.86,5.46,6.27,.96,1.63,1.98,1.34,3.1,.38,.84-.72,1.28-1.68,1.4-2.84,.31-3.12,1.54-3.81,4.52-2.64,.53-.05,1.06-.09,1.58-.14,.36-.32,.79-.34,1.23-.31,1.97-.41,3.82-1.01,4.91-2.9l.48-.41c.76-.6,1.6-.87,2.66-.7-.22,.46-.49,.8-.56,1.18-.17,.83-1.87,1.6-.34,2.48,1.29,.75,1.85-.62,2.56-1.33,.23-.23,.3-.61,.51-.86,2.25-2.67,1.78-5.94,2.03-9.05l-.08-.06s.06-.07,.06-.07c-.16-.41-.33-.83-.49-1.24-.29-.27-.35-.61-.3-.98,0,0,0-.06,0-.06-.39-1.43-.52-2.86-.03-4.29,.23-.31,.52-.27,.83-.16,.3-.01,.42,.15,.4,.43,0,.14,0,.28,0,.42,.13,.4,.27,.81,.4,1.21,1.56-.75,1.58-2.12,1.36-3.53-.57-3.58-2.94-5.99-5.46-8.32Z" style="fill: rgb(255, 87, 51);"></path><path data-v-6e8d9ed5="" d="M219.42,315.43c-.59-.48-1.04-1.65-1.9-.78-.72,.73-.29,1.86,.22,2.65,.67,1.05,1.27,2.08,1.29,3.36,0,.57,.09,1.07,.84,1.15,.8,.09,1.05-.4,1.28-1.01,.87-2.31,.88-2.31,2.78-.97,.05-.04,.12-.06,.14-.11,2.69-5.85,.46-11.73,.14-17.61-.02-.46-.38-.67-.86-.69-.58-.03-.83,.24-.98,.78-.28,.95-.29,2.07-1.4,2.57-1.02,.46-1.42,1.31-1.73,2.34-.33,1.08-.89,2.11-1.47,3.1-.49,.84-.49,1.24,.54,1.61,1.33,.47,2.43,1.29,2.26,2.97-.07,.72-.39,1.27-1.16,.65Z" style="fill: rgb(255, 87, 51);"></path><path data-v-6e8d9ed5="" d="M306.16,466.27c1.75,.37,2.93,1.23,3.39,3.04,.18,.7,.53,1.35,1.48,1.45,1.14,.13,1.09-.78,1.41-1.39,1.06-2.05,2.65-2.54,4.38-1.33,.75,.52,1.2,1.26,1.57,2.08,.32,.72,.51,1.62,1.65,1.43,.32-.05,.77,.05,.81-.39,.08-.82,.06-1.65-.57-2.29-1.36-1.4-2.63-2.85-4.56-3.63-2.44-.99-4.86-2.14-7.07-3.56-2.15-1.37-4.33-1.7-6.95-1.33,.45,1.36,1.97,2.03,1.91,3.23-.1,1.99,1.15,2.4,2.56,2.7Z" style="fill: rgb(255, 87, 51);"></path><path data-v-6e8d9ed5="" d="M217.58,399.68c.74,.43,1.63,.62,2.11,1.48,.2,.34,.72,.34,1.03-.05,.99-1.26,.92-4.2-.28-5.27-1.36-1.22-2.33-2.62-2.82-4.36-.25-.87-.89-1.31-1.71-1.48-.89,.41-2.09,.52-2.4,1.43-.25,.73,.77,1.16,1.34,1.59,1.35,1.01,2.38,2.37,1.69,3.96-.67,1.54-.07,2.09,1.03,2.73Z" style="fill: rgb(255, 87, 51);"></path><path data-v-6e8d9ed5="" d="M234.56,425.91c.1,1.67,.97,2.26,2.4,1.89,1.17,.05,2.37,.29,2.83-.88,.38-.97,.01-2-.84-2.71-.57-.48-1.25-.83-1.79-1.35-1.32-1.27-2.57-.18-3.5,.36-.98,.57,.47,1.23,.59,1.94,.05,.26,.29,.49,.31,.75Z" style="fill: rgb(255, 87, 51);"></path><path data-v-6e8d9ed5="" d="M213.25,388.82c1.68,.02,2.59-.48,2.57-1.69-.03-1.52-.33-3.03-.53-4.55-.07-.55-.51-.81-1-.85-.79-.06-3.32,3.55-2.95,4.27,.59,1.12,.94,2.49,1.9,2.81Z" style="fill: rgb(255, 87, 51);"></path><path data-v-6e8d9ed5="" d="M219.75,349.19c-1.62,.45-1.5,1.84-1.41,2.97,.08,.95,.61,1.51,1.79,.62,2.05-1.54,2.68-3.57,2.8-5.95-1.63,.09-1.84,1.99-3.18,2.36Z" style="fill: rgb(255, 87, 51);"></path><path data-v-6e8d9ed5="" d="M213.9,402.57c.57-.13,1.16,.2,1.41-.35,.19-.43,.18-.96-.21-1.31-1.16-1.03-2.33-2.03-3.92-2.35-.55-.11-.88,.16-1.22,.53-.27,.29-.35,.6-.05,.86,1.24,1.07,2.2,2.6,3.99,2.63Z" style="fill: rgb(255, 87, 51);"></path><text data-v-6e8d9ed5="" transform="matrix(1 0 0 1 260.6021 400.4747)" class="st1 st2">ঢাকা</text></g><g data-v-6e8d9ed5=""><path data-v-6e8d9ed5="" d="M209.57,217.27c.81-3.36-.15-6.47-1.57-9.45-1.8-3.79-1.15-7.26,2.14-9.96,1.4-1.15,2.36-2.53,3.08-4.14,.01-.54,.02-1.09,.03-1.63-.3-.39-.61-.78-.91-1.17l-.5-.43c-.12,0-.21-.04-.26-.16-.87-.58-2.12-.67-2.47-1.91-.1-.07-.13-.17-.09-.29-.61-1.23-.08-2.32,.45-3.4,.04-.13,.08-.26,.12-.39,.82-2.42,.22-3.69-2.21-4.45-.83-.26-1.73-.48-2.59-.46-3.47,.08-5.91-1.35-7.6-4.42-1.45-2.63-3.18-5.12-2.43-8.35,.2-.84-.41-1.21-.81-1.73-.99-1.28-1.35-2.69-.59-4.18,.29-.58,.83-1.2,1.59-1.09,.66,.1,.94,.76,1.06,1.37,.29,1.46,.36,2.98,.8,4.39,.59,1.92,1.24,3.75,1.25,5.86,.01,2.65,2.27,4.18,4.01,5.84,.66,.63,1.62,.4,2.51,.07,3.14-1.18,4.96-.29,6.47,2.66,.95,1.85,1.85,3.5,.13,5.33-.18,1.41,.05,2.38,1.81,1.63,.17-.15,.35-.3,.52-.45,.18-.26,.37-.52,.55-.77,.52-2.31,.39-4.38-.96-6.57-1.4-2.28-1.77-4.94-.02-7.48,.56-.81,.92-1.84,1.12-2.82,.49-2.38,.9-4.68,2.82-6.51,.99-.95,1.01-2.5,.37-3.84-.82-1.74-.59-3.26,.76-4.66,.62-.64,1.03-1.47,1.15-2.35,.26-1.93,.04-3.91,1.61-5.56,.71-.75,.11-1.96-.56-2.79-1.38-1.72-1.42-3.65-.76-5.59,.7-2.05,1.52-4.06,2.41-6.04,.95-2.1,1-4.1-.52-5.9-1.15-1.36,.01-2.23,.54-3.22,.23-.43,.7-.42,.93,.1,.19,.43,.3,.9,.43,1.35,.21,.75-.16,1.87,.74,2.16,1.02,.33,1.76-.61,2.38-1.28,1.36-1.48,3-2.52,4.77-3.4,.9-.84,1.8-1.69,2.7-2.53,.69-1.42,.72-2.36-1.32-1.92-.37,.08-.81-.13-1.19-.07-1.73,.27-2.54-.26-2.09-2.13,.09-.37-.06-.8-.09-1.2-.5-1.5-1.31-2.5-3.08-2.78-2.24-.36-2.66-1.84-1.16-3.57,.49-.56,.43-1.44,1.18-1.8,0-.38,0-.76,0-1.15-.98-.77-1.8-1.68-2.89-2.38-1.43-.92-2.41-2.45-2.41-4.44,0-2.54-1.17-3.16-3.62-2.22-.77,.29-1.56,.91-2.47,.33-2.65-1.6-2.65-2.85,0-5.57,.61-1.72-.39-2.64-1.68-3.45-.52-.33-1.23-.03-1.65-.57-1.06-.38-2.12-.33-3.18-.01-.13,1.31-.54,2.58-.41,3.95,.07,.72,.28,1.22,.8,1.65,.9,.32,1.05,.92,.66,1.73-.4,.82-1,1.09-1.95,.99-1.07-.12-1.93-1.4-3.16-.58l.02-.05c-.14,.22-.28,.44-.42,.66v.14c.16,1.33-.64,2.94,1.12,3.81,.45-.05,.9-.08,1.29,.24,.92,.15,1.68,.61,2.8,1.31-1.38,.48-2.41,1.12-3.45,1.13-1.71,.02-2.49,1.17-2.47,2.32,.03,1.35,1.47,1.47,2.67,1.37,.97-.79,2.03-.91,2.85,.05,.67,.78,.74,1.73-.38,2.35-1.99,.79-3.9,1.61-5.48,3.22-1.66,1.7-2.23,3.21-1.33,5.52,.61,1.57,.55,3.02-.54,4.36-.89,1.09-2.09,1.03-3.32,.87-.94-.13-1.39-.67-1.56-1.58-.73-3.95-3.69-5.43-7.33-3.67-.6,.29-1.15,.69-1.75,.98-2.11,1.03-2.73,.7-2.81-1.63-.05-1.39-.86-2.14-1.99-2.5-1.04-.33-2.06,.26-2.62,1.03-2.08,2.87-2.71,2.93-4.75,.1-.87-.32-1.76-.7-2.7-.57-1.25,.16-1.46-.55-1.45-1.52-.4-2.22-2.32-2.84-3.95-3.78-1.99-.27-3.26-1.04-2.9-3.42,.1-.69-.49-1.49-.77-2.24h0c-.11-.14-.23-.28-.34-.41l-.05-.08c-.13-.11-.26-.21-.39-.32-2.08-1.7-4.26-3.19-6.96-3.74-1.9-.14-3.73-.51-5.26-1.75-.16-.18-.33-.36-.49-.53-.44-.5-.78-1.03-.36-1.72,1.42-4.07,1.02-7.79-1.91-11.15-1.01-1.16-1.86-2.48-2.43-3.95-.06-.14-.11-.27-.17-.41-.48-.44-.65-1.02-.74-1.64-.03-.13-.05-.27-.08-.4-.61-.94-.46-1.78,.3-2.57,.77-.8,1.51-.65,2.36-.11,.65,.41,1.53,.51,2.1,.02,.56-.48,.16-1.3,.01-1.92-.54-2.21-2.42-2.3-4.07-2.08-1.81,.25-2.08-.53-1.99-1.96,.03-.4-.06-.82-.02-1.22,.1-1.14-.24-1.63-1.54-1.74-2.57-.2-4.49-1.53-5.25-4.11-.25-.84-.64-1.31-1.51-1.34-1.28-.05-2.29-.23-2.68-1.85-.18-.75-1.43-1.86-2.31-.6-.79,1.13-1.81,1.75-2.88,2.45-1.64,1.08-2.41,2.66-2.55,4.63-.12,1.65,.38,2.61,2.19,2.6,1.43,0,2.35,.59,2.22,2.2-.08,1.03,.39,1.52,1.41,1.49,1.86-.05,2.73,.86,3.12,2.68,.38,1.72,1.43,3.07,3.48,3.13,.4,.01,1.1,.05,1.16,.24,.69,2.22,2.79,3.18,4.12,4.79,.82,.99,.19,2.16-1.01,3.04-5.53,4.05-10.24,3.18-13.73-2.66-.67-1.12-1.42-2.15-2.62-2.78-2.48-1.3-5.26,.29-5.28,3.02,0,1.22-.12,2.36-1.54,2.75-1.49,.4-2.83,.27-3.78-1.15-.66-.98-1-2.07-1.2-3.22-.7-4.01-3.79-5.7-7.64-4.21-2.21,.85-3.96,2.34-5.61,3.97-.68,.67-1.37,1.33-2.27,1.69-.77,.31-1.44,.23-1.91-.59-1.17-2.02,.02-4.94,2.24-5.4,.28-.06,.51-.09,.63-.37,.65-1.53,2-1.88,3.46-2.1,2.05-.3,.99-2.01,1.33-3.08,.32-1.01-.33-1.27-1.21-1.34-1.54-.12-2.73-.92-3.4-2.28-.78-1.59-.64-3.69-2.67-4.59-.17-.08-.3-.49-.28-.73,.07-1.16-.51-1.41-1.57-1.5-2.08-.17-3.37-1.31-3.53-3.5-.08-1.12-.59-2.08-1.15-3.01-.81-.42-1.81-.82-2.49-.17-1.86,1.77-3.22,.51-4.7-.52-1.23-.85-2.51-1.61-3.72-2.49-1.03-.74-2.43-1.16-2.79-2.55-.52-2.02-1.82-2.59-3.8-2.84-3.98-.51-5.46-2.72-4.97-6.63,.14-1.14,.19-2.31,.15-3.46-.04-1.07-.02-2.31-1.64-2.29-1.55,.02-2.66,.58-2.74,2.33-.02,.52,.24,1.13-.39,1.46-3.07,1.6-3.13,4.38-2.74,7.24,.28,2.05-.37,3.55-1.97,4.79-1.57,1.22-2.17,3.54-1.4,5.32,.39,.91,.79,2.02,2.14,1.75,1.25-.25,1.52-1.18,1.4-2.33-.14-1.35,.63-2.22,1.74-2.71,1.16-.51,2.19,.05,2.88,.94,.62,.78,1.33,1.33,2.21,1.7,.52-.01,1.05-.02,1.57-.03,2.27-.77,4.48-.58,6.53,.62,.83,.48,1.72,1.1,1.33,2.35,0,.26-.01,.52-.02,.77l.31,2.47c.03,.13,.05,.26,.08,.39,.65,1.7,1.26,3.42,2.33,4.92,.08,.11,.15,.23,.23,.34,.48,.67,.99,1.34,.33,2.19,0,0,.02,0,.02,0-1.03,1.4-2.29,1.65-3.78,.75-.13-.05-.27-.09-.4-.14-2.07-.62-4.14-1.74-6.24-.09,0,0-.05,.1-.05,.1-.27,.82-.39,1.73-1.13,2.32,0,0-.11,.08-.11,.08-2.35,1.61-5.21,2.38-7.29,4.42,0,0-.07,.07-.07,.07-.46,.63-.91,1.27-1.37,1.9,.02,.12-.02,.22-.12,.29-.5,1.8-.51,3.56,.15,5.36,.71,1.95-.41,3.46-1.76,4.61-2.17,1.84-4.68,2.94-7.65,2.52-1.91-.27-4.28-.58-5.31,1.06-1.3,2.06-2.9,3.04-5.05,3.73-.94,.31-1.62,1.37-1.55,2.45,.11,1.63-.39,2.82-1.71,3.78-.4,.29-.55,.91-.82,1.37,.04,.24,.08,.49,.12,.73,.14,.16,.29,.32,.43,.48,.14,0,.26,.03,.36,.13,3.4,1.87,3.49,5.17,.23,7.2-2.59,1.61-4.41,3.79-4.71,6.96,0,.27-.01,.54-.02,.81,0,.53,.03,1.07,0,1.6-.12,1.82-.47,3.43-2.68,3.87-.74,.15-1.4,.75-2.09,1.15,0,0,0-.08,0-.08-.11,.65-.5,1.45,.22,1.87,2.96,1.75,2.1,4.5,1.88,7.05-.07,.85-.29,1.6,.63,2.09h.03c2,.96,2.71,2.72,2.73,4.75,.01,1.14,.27,2.09,.95,2.97l1.08,.44s.05,0,.05,0c.47-.13,.95-.27,1.42-.4,1.32-2.02,3.4-2.56,5.6-2.85,3.42-2.32,6.56-2.04,9.24,1,1.28,1.45,2.49,3,3.07,4.92,.14,.32,.27,.63,.41,.95,.39,.31,.54,.73,.56,1.21,.32-.1,.53,.02,.67,.31,2.13,1.82,4.26,3.65,6.39,5.47l.04,.03c.15,.11,.3,.22,.45,.33,1.92,1.26,3.87,2.5,5.77,3.79,1.26,.86,1.61,3.43,.7,4.71-1.73,2.44-1.01,5.68,1.53,7.12,.65,.37,1.18,.02,1.76,0,1.93-.08,2.71,.6,2.83,2.54,.22,3.38,1.33,4.35,4.76,4.11,.43,4,.94,4.44,5.14,4.35,.81-.02,1.69,.06,2.42-.22,1.76-.66,2.82,0,3.56,1.55v.03s.07,.08,.07,.08l1.55,1.36c1.81,1.06,3.7,1.61,5.78,.83l.05-.04,.32-.27c.92-2.94,3.16-2.93,5.58-2.51,.91,.16,1.42-.11,1.9-1.02,1.15-2.18,3.43-2.23,4.84-.18,.85,1.23,1.66,2.39,3.04,3.18,1.41,.8,1.61,2.26,1.17,3.78-.49,1.67-1.4,3.12-2.59,4.33-1.16,1.17-.83,1.94,.5,2.36,1.23,.39,1.73,1.03,1.71,2.32-.01,.64,.16,1.48,.58,1.91,1.52,1.57,3.13,3.01,3.88,5.19,.26,.76,.94,.51,1.42-.11,.81-1.06,1.43-.62,2.05,.26,1.97,2.78,2.6,2.98,5.87,2.05,1.32-.37,2.65-.58,4.01-.14,1.68,.55,2.31,1.81,2.3,3.44-.01,1.5-.32,2.76-2.16,3.16-1.51,.33-2.98,.93-4.18,2.01,2.66,.58,5.3,.92,8.04,.24,2.73-.68,4.19,.11,5.39,2.61,.43,.9,1.19,1.01,1.96,1.23,2.7,.76,5.22,.07,7.74-.87,2.25-.83,3.56-.3,4.23,1.4,.39,.99,.31,1.7-.83,2.07-1.95,.62-2.01,2.2-1.82,3.82,.18,1.5,1,2.28,2.6,2.64,2.6,.59,2.88,3.14,3.71,5.16,.17,.42,.12,.94,.22,1.4,.56,2.59,1.7,3.15,4.06,1.99,2.75-1.35,5.52-2.41,8.48-.52,1.17,.75,2.06,1.6,2.42,3.08,.61,2.45,1.99,2.87,3.98,1.33,1.45-1.12,2.81-1.41,4.46-.33,.88,.58,2,.87,3.05,1.12,2.48,.57,4.72,1.56,6.87,2.96,3.13,2.04,4.91,1.69,7.64-1.11,1-1.03,2.29-1.4,3.65-1.64-.15-3.85,0-7.72-1.06-11.51-.61-2.18-.08-4.32,1.15-6.23,.48-.74,1.03-1.33,2.07-1.44,2.26-.24,3.43-1.74,3.93-3.83Z" style="fill: rgb(255, 209, 51);"></path><path data-v-6e8d9ed5="" d="M234.33,157.45c-.39-.18-.38-.52-.35-.86-.11-.4-.23-.81-.34-1.21l-.14-.79c-.13-.38-.25-.77-.38-1.15-.42-.29-.83-.58-1.25-.86-.33-.02-.69,.03-.76-.44-.54-.58-.63-1.34-.77-2.06-.09-.49-.17-.85-.81-.95-2.52-.39-4.2,.86-4.55,3.37-.13,.94-.11,1.59,1.1,1.62,.73,.01,1.32,.48,1.51,1.18,.22,.82-.37,1.4-.89,1.93-.39,.41-.95,.46-1.48,.62-2.33,.67-2.81,1.47-2.35,3.77,.48,2.35-.32,4.3-1.99,5.9-.77,.75-1.73,1.3-2.58,1.97-1.68,1.31-1.54,3.18,.35,4.07,.58,.27,.86,.56,.82,1.2-.24,4.37,.91,9.11-3.34,12.42-.24,.19-.32,.58-.48,.88-.03,.27-.06,.54-.09,.81,0,.54,0,1.08,.01,1.62,.02,.27,.05,.54,.07,.81,.45,1.02,.73,2-.47,2.74-.24,.32-.48,.65-.72,.97-.13,.27-.26,.55-.39,.82-.39,.79-.78,1.58-1.17,2.36-.57,1.16-.14,1.83,1.07,2.03,.46,.08,.95,.04,1.42,.02,1.29-.07,1.38,.66,.94,1.55-.26,.53-.69,1.07-1.19,1.36-1.78,1.01-1.08,1.82,.19,2.45,2.28,1.14,3.42,2.98,3.59,5.46,.09,1.35,.12,2.7,.17,4.06,1.43-1.77,1.6-3.92,.75-5.77-1.6-3.47-1.67-6.57,.89-9.57,.41-.49,.59-1.2,.8-1.84,1.01-3.07,2.9-4.27,5.99-3.74,.67,.11,1.33,.26,2,.4,.24-.29,.48-.57,.73-.86,1.76-4.68,2.48-9.59,2.97-14.52,.2-2.05,1.32-3.64,2.03-5.44,.18-1.99,.33-3.97-.19-5.94-.21-.82,.09-1.56,.53-2.25h0c.15-1.18,.35-2.38,.46-3.58,.16-1.76-.27-3.33-1.7-4.51Z" style="fill: rgb(255, 209, 51);"></path><path data-v-6e8d9ed5="" d="M230.69,133.16c-.37,.07-.57,.05-.61,.12-1.51,2.8-3.39,5.11-6.65,6.1-1.21,.37-.32,1.06,.31,1.25,1.24,.38,1.72,1.07,1.54,2.38-.57,4.14-.05,4.45,4.09,3.7,.32-.06,.63-.2,.95-.31,.02-.27,.04-.53,.05-.8,.03-.78,.49-1.51,.06-2.36-1.26-2.44-.88-5-.34-7.54,.17-.82,.38-1.63,.59-2.54Z" style="fill: rgb(255, 209, 51);"></path><path data-v-6e8d9ed5="" d="M233.56,121.48c-.35,.36-.74,.15-1.13,.08-.53,2.17-2.49,2.91-4.07,4-1.18,.81-2.34,1.59-2.83,3.25,1.3-.02,2.75,1.59,3.63-.24,.95-1.97,2.53-2.91,4.31-3.76,.98-.47,1.77-1.29,1.87-2.26,.11-1.06-1.38-.34-1.78-1.06Z" style="fill: rgb(255, 209, 51);"></path><path data-v-6e8d9ed5="" d="M226.11,135.47c.42-.85,.97-1.64,1.32-2.51,.21-.52,1.12-1.17,.12-1.7-.79-.42-1.59-.56-2.27,.47-1.06,1.59-2,3.21-2.6,5.17,1.68,.56,2.73-.02,3.43-1.42Z" style="fill: rgb(255, 209, 51);"></path><path data-v-6e8d9ed5="" d="M222.12,148.62c-.56,1.3-.93,2.68-1.35,4.03-.24,.76,.43,1.07,.84,1.47,.57,.56,.95,.02,1.39-.26,1.04-.68,1.03-1.83,1.34-2.92-.19-.74-.28-1.57-.62-2.29-.42-.87-1.17-1.01-1.59-.03Z" style="fill: rgb(255, 209, 51);"></path><path data-v-6e8d9ed5="" d="M212.15,218.72c-2.56,2.35-5.24,3.92-6.71,6.83-.99,1.96-.88,4.65,.95,5.87,1.93,1.28,2.2,2.7,1.41,4.64-.14,.35-.47,.87,0,1.08,.48,.22,1.13,.04,1.49-.36,.29-.33,.4-.85,.51-1.31,.64-2.51,1.32-5,3.09-7.01,.33-.37,.52-.82,.37-1.32-.76-2.6-.92-5.29-1.12-8.43Z" style="fill: rgb(255, 209, 51);"></path><path data-v-6e8d9ed5="" d="M216.32,209.46c-.21-.81-.94-1.41-1.72-1.57-.52-.11-.83,.63-1.05,1.1-.32,.69-.55,1.67,.19,2.03,1.54,.76,1.56,2.03,1.63,3.4,.02,.45-.2,1.24,.69,1.11,.68-.1,1.37-.34,1.21-1.31-.31-1.59-.55-3.19-.96-4.76Z" style="fill: rgb(255, 209, 51);"></path><text data-v-6e8d9ed5="" transform="matrix(1 0 0 1 109.7163 159.9531)" class="st1 st2">রংপুর</text></g><g data-v-6e8d9ed5=""><polygon data-v-6e8d9ed5="" points="68.06 332.75 68.05 332.74 68.04 332.73 68.06 332.75" style="fill: rgb(161, 51, 255);"></polygon><path data-v-6e8d9ed5="" d="M219.4,332.05c-1.36-3.52-1.64-7.09-2.04-10.7-.2-1.83-.61-3.03-2.55-3.81-2.58-1.04-2.83-2.84-1.56-5.25,2.25-4.27,1.31-8.7,.31-13.09-.04-.19-.17-.44-.32-.5-2.06-.84-1.96-2.85-2.5-4.52-.23-.7-.47-1.48-.94-2.01-1.91-2.15-1.9-4.35-.5-6.73,.53-.9,.9-2.12,.2-2.9-1.56-1.74-1.54-3.93-2.15-5.94-.27-.91-.77-1.72-1.48-2.4-1.99-1.91-2.98-4.33-3.39-7.01-.33-.36-.33-.8-.29-1.25-.08-.11-.1-.24-.05-.37-1.48-3.7-2.25-7.6-3.13-11.46-.24-1.03,.03-2.02,.38-2.97,.64-1.72,1.47-3.39,2.72-4.71,1.74-1.83,1.98-3.85,1.38-6.13-1.36,.24-2.65,.61-3.65,1.64-2.73,2.8-4.52,3.15-7.64,1.11-2.14-1.4-4.39-2.38-6.87-2.96-1.05-.24-2.16-.54-3.05-1.12-1.65-1.08-3.01-.79-4.46,.33-1.99,1.53-3.37,1.12-3.98-1.33-.37-1.48-1.25-2.33-2.42-3.08-2.96-1.9-5.73-.83-8.48,.52-2.36,1.16-3.5,.6-4.06-1.99-.1-.46-.05-.98-.22-1.4-.83-2.02-1.11-4.57-3.71-5.16-1.6-.36-2.42-1.14-2.6-2.64-.19-1.62-.13-3.2,1.82-3.82,1.14-.36,1.21-1.07,.83-2.07-.66-1.71-1.98-2.24-4.23-1.4-2.53,.94-5.04,1.63-7.74,.87-.77-.22-1.53-.33-1.96-1.23-1.2-2.5-2.67-3.29-5.39-2.61-2.74,.68-5.38,.34-8.04-.24-1.12,.72-1.23,1.56-.62,2.76,.79,1.55,.83,3.16-.63,4.44-.34,.3-.53,.56-.48,1.01,.2,2.09-1.08,2.52-2.8,2.5-2.57-.04-4.5-1.32-6.17-3.11-2.27-2.46-3.34-2.4-5.09,.34-2.16,3.36-7.8,3.62-10.34,.44-1.01-1.26-2.32-2.05-3.74-2.73-.4-.12-.8-.24-1.2-.36-.16-.02-.31-.04-.47-.06-.68-.03-1.35-.05-2.03-.08l-.83,.06c-.25,0-.51,.01-.76,.02-.55-.01-1.1-.03-1.65-.04-.27,0-.55,.02-.82,.03-2.49,.4-4.63,1.33-5.79,3.78,.03,.26-.11,.35-.34,.36l-.04,.02c-1.59,1.19-3.1,1.24-4.48-.35h0c-.48-.16-.88-.42-1.15-.87l-.04-.03c-.16-.11-.32-.22-.48-.34-.13,0-.25-.06-.33-.16-.61-.26-1.2-.55-1.63-1.08-.13-.05-.27-.11-.4-.16l-1.03-.68c-1.39-.51-2.82-.58-4.28-.4-.56,.4-1.13,.81-1.69,1.21-.37,.73-.73,1.46-1.1,2.19-.04,.23-.08,.45-.12,.68,.06,.25,.12,.5,.18,.75,.39,.16,.65,.44,.79,.83,1.66,1.81,.07,3.34-.42,4.96,.04,.14,.02,.27-.07,.39,0,.78,.01,1.56,.02,2.35,.11,.17,.23,.34,.34,.51,.89,.94,1.17,2.02,.75,3.26-.17,.68-.48,1.26-1.13,1.6l-.03,.03c-.2,.49-.61,.72-1.08,.88-.15,.44-.29,.88-.44,1.33,.06,.1,.04,.19-.04,.26,0,.71,.17,1.45-.43,2.04-.12,.17-.24,.33-.36,.5h.06c-.29,.87-.72,1.66-1.31,2.37-.4,1.09-.81,2.17-1.21,3.26-.04,.13-.08,.26-.12,.38-.44,1.01-1.9,.8-2.28,1.88l-.03,.09c.3,.23,.17,.45-.02,.67-.02,.21-.04,.42-.07,.63-.02,.79-.25,1.49-.78,2.09-.13,.82-.57,1.46-1.12,2.04l-.56,.76c-.16,.51-.46,.9-.9,1.19-.12,.37-.33,.67-.7,.82-.39,.44-.77,.88-1.16,1.32h.02c-.11,.88-.43,1.62-1.33,1.97-1.18,.87-2.42,.48-3.61,.1-1.12-.36-2.2-.86-3.3-1.3-.35-.02-.61-.17-.78-.47-.5-.22-.78-.62-.94-1.12l-.42-.78h.03c-.32-.21-.34-.53-.34-.86-.54-.76-.59-1.64-.67-2.52-.55-2.82-1.27-3.67-3.6-3.32-3.22,.48-6.12,2.05-9.1,3.29-.74,.31-1.52,1.52-.73,1.93,2.11,1.11,1.81,3.35,2.83,4.93,1,1.54,.68,2.98-.34,4.33-1.12,1.49-2.51,2.69-4.35,3.19-1.41,.38-2.14,1.38-1.91,2.66,.43,2.34-.9,2.96-2.7,2.98-1.85,.03-2.06,1.06-2.26,2.55-.28,2.13-.1,4.36-1.6,6.28-.92,1.18-1.7,2.75-1.14,4.33,.7,1.96,1.32,4.02,3.09,5.41,.88,.69,1.67,1.52,2.5,2.28,1.1,.1,1.11,.89,1.11,1.72-.02,2.4-.03,4.8-.04,7.21,.07,.69,.13,1.37,.2,2.06h-.02c.13,.13,.25,.28,.38,.43,1.09,1.67,2.55,2.6,4.61,2.92,2.58,.4,4.89,1.58,6.77,3.49,.89,.9,1.96,1.26,3.24,1.47,11.02,1.84,19.84,7.34,26.57,16.23,.24,.27,.47,.53,.71,.8,.13,.07,.2,.17,.21,.31,.12,.13,.24,.25,.37,.38,.27,.25,.54,.5,.81,.75,.23,.2,.46,.4,.7,.6,.31,.22,.63,.45,.94,.67,.53,.3,1.07,.59,1.6,.89,.54,.17,1.09,.34,1.63,.52,.33,.09,.66,.17,1,.26,.69,0,1.37,0,2.06,0,.34-.09,.68-.18,1.02-.26,0,0,.09-.02,.09-.02,.24-.12,.47-.23,.71-.35,3.59-1.61,4.19-1.51,7.06,1.18,1.87,1.75,3.69,1.9,4.91,.4,2.23-2.75,5.58-2.46,7.21,.71,2.01,3.9,2.91,8.03,2.1,12.42-.2,1.09-.09,2.13,.15,3.22,.95,4.4,4.06,6.98,7.72,8.92,3.15,1.67,6.32,.28,7.58-2.98,.25-.64,.51-1.21,1.1-1.65,4.01-3.02,9.65-3.12,13.72-.18,1.45,1.05,2.42,2.38,2.31,4.28-.19,3.2,2.31,5.22,3.6,7.73,.7,1.37,2.21,2.45,3.19,3.8,.73,.94,1.29,1.96,1.38,3.19,.33,.37,.35,.81,.31,1.28,0,.14,0,.28,0,.42-.13,1.97,.62,3.33,2.57,4.02,.73,.26,1.35,.84,2.01,1.27,.13,.04,.25,.09,.38,.13,.82,.35,1.65,.71,2.47,1.06,.26,.06,.53,.13,.79,.19,.14,.07,.28,.14,.42,.21,.81,.2,1.62,.4,2.43,.59,.28,.08,.55,.17,.83,.25,1.22,.05,2.44,.1,3.66,.15,4.83,.21,9.6,.69,14.15,2.55,7.11,2.9,13.45,7.04,19.45,11.75,1.83,1.44,3.83,1.95,6.09,1.7,4.31-.47,8.01-2.49,11.57-4.77,1.53-.98,2.27-2.54,1.99-4.39-.37-2.48-.85-4.94-1.29-7.41-.24-1.35-.49-2.81,.17-4.01,1.53-2.78,.76-5.52,.16-8.28-.17-.79-.44-1.57-.66-2.35-.11-.39-.27-.84,.17-1.09,.44-.25,.74,.18,1.06,.41,.27,.2,.51,.45,.75,.68,1.73,1.68,2.3,1.64,3.28-.58,2.06-4.67,3.21-9.55,2.51-14.67-.41-2.97-.6-5.94-.7-8.93-.04-1.21,.26-2.17,1-3.17,2.67-3.64,4.54-7.75,2.84-12.17Z" style="fill: rgb(161, 51, 255);"></path><path data-v-6e8d9ed5="" d="M211.59,290.15c1.01,.66,1.4,1.57,1.6,2.69,.27,1.53,.4,3.43,1.57,4.3,1.73,1.3,1.81,2.87,1.87,4.64,.03,.8-.12,1.63,.39,2.39,1.03-.34,1.34-1.19,1.69-2.1,1.22-3.17,1.18-6.61,2.25-9.8,.45-1.35,.06-2.34-1.1-3.34-1.33-1.16-2.76-1.89-4.37-2.47-1.22-.44-3.13-.14-4.05,.83-.96,1.01-1.14,2.04,.15,2.88Z" style="fill: rgb(161, 51, 255);"></path><path data-v-6e8d9ed5="" d="M201.41,255.48c.8,1.46,.96,3.13,1.58,4.56,.75,1.72,.54,3.94,2.43,5.11,.15-.15,.3-.31,.44-.46,.24-.33,.47-.67,.71-1,0-.1,.03-.18,.13-.22,.08-.43,.32-.72,.73-.86,.03-.26,.06-.51,.08-.77,.01-.84-.07-1.65-.53-2.39,0,0,0,0,0,0-1.57-.07-2.44-.66-1.82-2.4,.45-1.25-.49-1.6-1.34-1.76-.74-.14-1.58-.21-2.44,.19Z" style="fill: rgb(161, 51, 255);"></path><path data-v-6e8d9ed5="" d="M220.31,343.76c-1.32,.11-2.92,2-3.04,3.67,.07,.52-.04,1.61,.79,1.14,1.36-.77,3.02-1.38,3.6-3.1,.41-1.22-.01-1.82-1.35-1.71Z" style="fill: rgb(161, 51, 255);"></path><path data-v-6e8d9ed5="" d="M217.13,280.87c.35,.31,.71,.64,.97,1.02,.62,.91,.91,2.12,2.55,2.41-.46-1.89-.46-3.72-1.96-4.94-.76-.61-1.95-1.04-2.54-.43-.89,.93,.36,1.41,.98,1.95Z" style="fill: rgb(161, 51, 255);"></path><path data-v-6e8d9ed5="" d="M212.21,283.35c1.47-1.28,.69-2.45,.09-3.55-.21-.38-.35-1.26-1.1-.76-.46,.3-1,.72-.75,1.5,.34,1.06,.94,1.93,1.76,2.81Z" style="fill: rgb(161, 51, 255);"></path><path data-v-6e8d9ed5="" d="M218.88,286.06c-.92-1.3-1.75-2.49-2.75-3.92-.09,3.08,.29,3.59,2.75,3.92Z" style="fill: rgb(161, 51, 255);"></path><path data-v-6e8d9ed5="" d="M129.82,359.46c-2.52-2.62-6.57-2.79-10.64-.43-.54,.31-1.53,.51-1.29,1.32,.21,.71,1.12,.57,1.86,.6,.27-.02,.63,.03,.95-.07,2.8-.82,5.55-1.21,8.26,.37,.48,.28,1.31,.33,1.64-.31,.36-.69-.38-1.08-.77-1.48Z" style="fill: rgb(161, 51, 255);"></path><path data-v-6e8d9ed5="" d="M202.16,249.43c-.42,.6-.76,1.27-1.06,1.94-.22,.49-.89,1.02-.16,1.58,.52,.4,1.06,.79,1.83,.53,1.25-.42,2.25-.97,2.03-2.55-.04-.33-.05-.66-.11-.99-.15-.81-.4-1.8-1.16-1.99-.86-.21-.97,.92-1.37,1.48Z" style="fill: rgb(161, 51, 255);"></path><text data-v-6e8d9ed5="" transform="matrix(1 0 0 1 89.0039 320.459)" class="st1 st2">রাজশাহী</text></g><g data-v-6e8d9ed5=""><path data-v-6e8d9ed5="" d="M481.3,648.49s0,0,0,0c-.01-.01-.02-.03-.03-.04,0,0,.04,.05,.04,.05Z" style="fill: rgb(51, 87, 255);"></path><path data-v-6e8d9ed5="" d="M470.59,615.14s.01,0,.02-.01c0,0,0,0,0,0h-.02Z" style="fill: rgb(51, 87, 255);"></path><path data-v-6e8d9ed5="" d="M576.46,728.68c-3.8-4.38-4.87-9.77-5.97-15.14-2.18-10.68-2.81-21.54-3.17-32.41-.27-8.2-.77-16.41,1.22-24.53,.83-3.4,.46-6.79-1.05-10.13-1.3-2.89-2.07-6.02-2.37-9.22,0,0,0-.02,0-.02-.69-1.88-.92-3.84-1.09-5.81-.01-.15-.03-.3-.04-.45-.04-.09-.09-.18-.11-.27,0-.03,.04-.08,.07-.13,0,0-.01,0-.01,0-.44-1.31-.48-2.69-.6-4.05l-.15-1.63c-.12-.8-.21-1.61-.37-2.4-.18-.92,.01-1.25,1.09-1.31,3.64-.19,4.26-1.5,2.25-4.46-.08-.12-.15-.24-.23-.36-.48-.46-.62-1.06-.7-1.68h0c-.53-1.17-.88-2.37-.74-3.67-.01-1.09-.02-2.17-.04-3.26-.29-1.23,.49-2.47-.02-3.71-.91-.72-1.06-1.75-1.15-2.8-.02-.28-.04-.57-.06-.85-.3-.77-.44-1.57-.28-2.39-.02-.83-.04-1.66-.05-2.49,0-.41,0-.81,0-1.22-.29-1.47-2.07-2.08-2.14-3.68-1.19-2.02-1.32-4.24-1.3-6.5-.67-.42-.38-1.06-.39-1.64-.02-.28-.04-.55-.06-.83-.27-.82-.25-1.66-.11-2.5,0-.24-.02-.48-.02-.72-.11-1.15-.27-2.3,.1-3.43-.2-.64-.09-1.26,.12-1.88,0-.32,.02-.64,.03-.96-.24-.51-.49-1.02-.73-1.53-.12-.06-.17-.16-.16-.29-.64-.57-.98-1.3-1.11-2.14-.48-.47-.66-1.11-.47-1.67,1.7-5.17-.08-10.24-.41-15.34,0-.07,.01-.13,.02-.2l-.71-4.01c-.03-.27-.05-.55-.08-.82-.43-1.91-2.68-1.95-3.53-3.42-.44-.25-.83-.54-1.02-1.04-.54-.28-.9-.71-1.15-1.25-.17-.21-.34-.42-.51-.63-.15-.18-.3-.37-.44-.55-.5-.79-.26-1.65-.24-2.49-.01-.26-.02-.52-.03-.79-.36-3.5-.69-6.99-1.96-10.32-.64-1.69-1.37-3.15-3.34-3.72-.99-.28-1.95-.92-2.6-1.85-3.78-3.41-4.06-7.76-3.24-12.35,.41-2.27,1.21-4.46,1.07-6.81-.11-1.77-.46-3.44-2.4-4.08-.77-.26-.64-.77-.64-1.27,0-1.77,.03-3.53,.06-5.3-.56-3.78-1.87-7.45-1.46-11.38,.12-1.15,.27-1.95,1.31-2.69,2.94-2.1,3.37-4.28,1.89-7.67-.64-1.46-.69-3.02-.58-4.6,.13-1.82-.92-3.15-1.66-4.72-1.33-2.82-3.9-5.26-4.32-8.07-.64-4.32-.86-8.75-1.76-13.06-.51-2.4-.77-4.79-2.92-6.66-1.78-1.55-1.77-3.98-1.17-6.29,.56-2.16,1.14-4.34,1.48-6.54,.53-3.41-1.68-5.44-4.75-4.55-.95,.27-1.53,.67-1.39,1.83,.18,1.42-.01,2.85-.33,4.24-.18,.77-.32,1.59-1.13,2.07-.58,.35-1.11,.93-1.83,.66-.8-.3-.93-1.1-.98-1.86-.11-1.74,.29-3.5-.46-5.21-.5-1.15-1.21-2.09-2.06-2.97-1.08-.25-2.17-.22-3.26-.03-.27,.14-.54,.28-.8,.43-.33,.21-.65,.42-.98,.62,0,0-.12,.07-.12,.07-.72,.58-1.45,1.16-2.17,1.74h-.01c-1.09,1.23-2.18,2.44-3.27,3.66h0c-.07,.45-.37,.7-.73,.9-.13,.51-.47,.88-.87,1.2-2.29,3.01-6.2,2.98-9.13-.05-1.67-1.74-2.87-3.79-3.77-6-.44-1.08-1.1-1.79-2.25-1.66-1.13,.13-1.41,1.15-1.62,2.1-.64,2.91-.29,5.82,.03,8.72,.03,.26,.12,.55,.27,.75,4.24,5.36,4.21,11.74,3.46,17.9-.3,2.49-2.62,5.71-4.88,6.79-5.08,2.42-9.38,5.48-12.56,10.02-2.52,3.61-5,7.3-6.29,11.58-.95,3.15-.75,6.07,1.55,8.78,1.91,2.25,2.76,5.1,3.45,7.96,.61,2.51,.85,5.07,1.48,7.59,.67,2.67-.34,3.97-3.19,4.54-.73,.15-1.02,.42-1.2,1.1-1.59,6.12-6.1,8.65-11.87,9.56-1.53,.24-3.11,.3-4.67,.3-.96,0-1.46,.26-1.72,1.23-.28,1.04-.7,2.07-1.22,3.01-.86,1.55-1.58,1.53-2.4,0-.26-.47-.46-.99-.61-1.51-.21-.72-.52-1.15-1.39-1.17-3.49-.05-4.93-2.43-5.8-5.34-.27-.91-.43-1.86-.48-2.81-.05-.9-.2-1.41-1.24-1.69-1.5-.4-2.16-1.76-1.99-3.2,.47-3.95-1.06-7.46-2.14-11.07-.17-.58-.34-1.17-.51-1.75-.2-.08-.29-.24-.25-.46-.03-.13-.06-.27-.08-.4-.83-1.62-1.67-3.24-2.51-4.87l.03,.03c-.1-.16-.2-.31-.3-.47-.96-1.23-1.92-2.46-2.88-3.68-1.13-1.43-2.64-1.88-4.35-1.45-1.77,.44-2.44,1.89-2.63,3.51-.57,4.95,.17,9.75,2.12,14.33,.69,1.62,1.63,3.14,1.86,4.93,.27,2.1-.76,3.28-2.86,3.19-2.99-.13-4.82-2.01-6.12-4.44-1.81-3.36-2.42-7.03-2.46-10.81-.05-4.37-.31-8.69-2.81-12.52-.59-.9-.35-1.92,.14-2.72,.75-1.22,.85-2.31,.07-3.53-.2-.32-.13-.8-.26-1.18-.51-1.51-.34-2.63,1.46-3.07,.63-.15,1.45-.44,1.31-1.28-.11-.66-.91-.71-1.48-.88-.2-.06-.4-.12-.6-.12-2.18,0-3.6-.59-2.66-3.21,.15-.41,.04-.95-.34-1.33-1.73-1.7-2.5-3.93-2.87-6.18-.56-3.33-2.48-5.34-5.39-6.58-1.15-.49-1.39-.99-1.04-2.23,.63-2.18,.22-4.25-1.21-6.14-2.16-2.83-3.82-5.93-4.41-9.51-.39-2.41-.16-2.7,2.12-2.71,.27,0,.54-.05,.81-.09,1.33-.16,2.37-.73,2.58-2.16,.22-1.51-1-2.06-2.06-2.38-1.58-.47-2.91-1.03-3.4-2.79-.28-1.02-.34-1.98,.05-2.98,.4-1.03,.98-1.59,2.16-1.23,1.14,.35,2.28,.32,3.41-.07,1.64-.57,2.69-1.51,2.38-3.46-.17-1.08-.07-2.17,.18-3.24,.22-.96,.27-1.8,1.69-2.06,1.54-.28,2.29-3.44,1.32-4.88-.8-1.2-1.4-2.46-1.8-3.85-.64-2.22-1.11-4.25,1.31-5.9,1.28-.87,1.87-2.32,1.74-4.09-.12-1.61,.02-3.39,2.53-3.14,.8,.08,.97-.76,1.33-1.33,.55-.85,1.08-2.05,2.49-1.11,.15-2.57,.64-5.18,.36-7.71-.42-3.79-1.28-7.54-2.17-11.26-.52-2.19-.3-3.05,1.89-3.56,1.19-.28,1.77-.69,1.67-2.01-.11-1.4-1-1.11-1.87-1.14-1.58-.06-1.96-1.04-1.58-2.38,.32-1.12,1.16-1.79,2.3-2.09,1.84-.48,2.08-1.43,.74-2.8-1.9-1.95-3.62-1.81-5.2,.43-2.63,3.74-4.38,4.14-8.66,2.39-2.53-1.03-4.84-2.14-5.7-5-1.05,.5-1.99,1.19-2.72,2.06-1.47,1.76-3.29,2.76-5.56,2.87-1.28,.07-1.29,1.05-1.4,1.86-.16,1.13-.35,1.84-1.72,1.11-.71-.38-1.57-.31-2.39-.2,.27,2.94-.85,4.8-3.68,6.07-.91,.41-2.19,.52-2.13,1.83,.07,1.34,1.3,1.97,2.37,2.24,3.02,.76,4.19,2.8,4.78,5.65,.56,2.73-.64,4.73-2.56,5.98-5,3.26-6.39,8.14-6.95,13.59-.26,2.53-1.33,4.66-3.77,5.93-1.59,.82-2.31,2.41-3.1,3.93-.44,.84-.21,2.13-1.54,2.41-1.68,.34-3.64,.92-4.97-.08-1.82-1.37-3.08-.62-4.32,.4-1.58,1.3-2.95,2.03-4.75,.32-.64-.61-1.8-.94-2.58,0-1.08,1.31-.9,2.91-.27,4.25,.58,1.25,2.03,2.2,1.43,3.79-.68,1.83-2.09,3.14-3.69,4.23-1.64,1.12-2.72,2.63-3.18,4.56-.19,.8,0,1.48,.86,1.83,.82,.34,1.27-.06,1.64-.72,.13-.23,.29-.47,.48-.65,.37-.36,.62-1.05,1.26-.83,.57,.2,.6,.84,.67,1.38,.3,2.53,.03,4.91-1.96,6.76-.7,.65-1,1.42-1.15,2.31,.91,.7,1.82,1.41,2.74,2.09,.3,.22,.84,.24,.66,.82-.16,.54-.55,.77-1.09,.66-2.26-.47-2.84,.82-2.85,2.7-.01,1.98-.9,3.09-2.96,3.3-1.59,.16-2.27,1.09-1.72,2.71,2.1-.71,2.83-.29,3.09,1.89,.24,2.02-.24,3.92-1.26,5.66-.95,1.62-2.28,2.12-4.14,1.43-3.17-1.18-6.1-.45-8.85,1.38-.83,.55-.88,1.01-.52,1.98,.76,2.01,1.29,4.12,1.05,6.33-.1,.9-.29,1.82-.92,2.43-1.61,1.57-.96,3.16-.2,4.77,.86,1.83,1.94,3.62,4.17,3.73,2.13,.11,2.71,1.34,2.71,3.03,0,1.06,.24,1.92,.67,2.87,.99,2.18,1.32,4.33-.41,6.46-2.16,2.64-2.42,5.86-2.35,9.13,.01,.6-.12,1.21-.18,1.81,.07,.98-.06,1.93-.36,2.86-.55,4.19-.21,8.26,1.67,12.12,.11,.17,.23,.35,.34,.52,1.3,1.78,2.52,3.62,4.27,5.01,.78,.62,.78,1.5,.91,2.35,.75,2.33,1.43,4.68,3.49,6.29,.83,.65,.4,1.66,.54,2.49,.31,1.81,.29,3.72,2.71,4.2,.92,.18,.4,1.03,.37,1.55-.28,4.71,.31,9.22,2.94,13.27,.66,1.02,1.42,2.01,2.31,2.82,1.52,1.38,3.16,2.45,3.69,4.78,.44,1.93,2.55,2.48,4.34,2.28,1.83-.2,2.08,.52,2.28,2.04,.4,3.09,1.61,5.87,3.98,8.02,.44,.04,.76,.25,.96,.64h-.05c.17,.15,.33,.32,.5,.48,.1,.15,.21,.29,.31,.44,.25,.28,.49,.56,.74,.84,.14,.14,.27,.28,.41,.41,.78,.56,1.56,1.12,2.34,1.67l.07,.02c.41,.15,.83,.31,1.24,.46,.35,.1,.69,.2,1.04,.3,1.96,.08,3.67-.77,5.45-1.39,.79-1.08,2.37-1.09,3.09-2.27,.58-1.35,1.29-2.65-1.05-3.11-.94-.19-1.2-1.27-1.29-2.15-.14-1.27-.24-2.48-1.44-3.31-.34-.23-.47-.82-.61-1.27-.27-.9-1.32-2.2-.07-2.63,1.14-.39,2.63,.54,2.93,1.88,.43,1.89,1.28,3.53,2.21,5.17,1.86-.07,1.41,1.63,1.95,2.57,.1,.05,.13,.13,.11,.23,.68,.81,1.35,1.61,2.03,2.42,.46,.25,.99,.42,1.25,.95,0,0-.03-.03-.03-.03,.11,.17,.23,.34,.34,.51v.02c.59,.71,1.34,1.2,2.17,1.57,.24,.02,.47,.03,.71,.05,.27,0,.54,0,.81,0,.27-.02,.53-.04,.8-.06,1.07-.29,2.14-.57,3.22-.86l-.02,.03c.16-.09,.33-.18,.49-.26,.15-.03,.3-.05,.45-.08,.61-.39,1.2-.84,1.99-.72,.68-.01,1.37-.03,2.05-.04,3.75-.61,6.67-2.26,7.79-6.18-.02-.37-.05-.75-.07-1.12l-.27-.5c-.11-.08-.16-.19-.14-.33-2-1.97-4.46-2.72-7.2-2.76-.95-.02-1.9-.03-2.84-.13-.73-.07-1.66-.16-1.59-1.17,.07-.97,.9-.98,1.71-.94,.81,.04,1.65,.06,2.43-.12,.8-.18,1.22-.66,.32-1.38-.92-.73-2.25-1.39-1.27-2.88,1.01-1.54,2.91-1.88,4.5-.83,1.18,.79,2.31,1.69,2.51,3.27,.17,1.28,.76,1.75,1.89,.84,1.05-.84,1.92-.82,2.74,.33,.59,.83,1.46,1.04,2.35,.61,1.22-.6,2.3-1.44,2.96-2.65,.2-.36-.33-.71-.69-.87-.55-.25-1.16-.39-1.71-.64-1.13-.5-1.73-1.53-1.42-2.61,.32-1.14,1.43-.61,2.28-.5,1.78,.23,3.18,1.49,4.93,1.81,.1-.09,.21-.12,.34-.1,.15-.15,.3-.31,.44-.46l-.04,.03c.11-1.08,.16-2.13-.38-3.17-.42-.82-.94-1.84,.1-2.56,.96-.66,1.97-.2,2.86,.32,.39,.23,.63,.71,1.01,.99,1.09,.81,1.96,.62,2.2-.79,.53-3.14,1.77-5.79,4.54-7.6,.89-.58,1.18-1.51,1.26-2.63,.18-2.5,1.3-4.49,4.02-5.78-.41,3.58,.46,7.04-2.26,9.93-1.62,1.72-2.32,3.95-1.8,6.4,2,2.45,4.04,4.87,5.96,7.38,.81,1.06,1.65,1.75,3.03,1.53,1.09-.17,1.67,.31,2.19,1.29,2,3.77,4.3,7.31,7.44,10.31,2.55,2.43,4.53,5.36,6.15,8.5,.16,.26,.32,.51,.48,.77,.32,.15,.4,.44,.43,.75,1.31,1.8,2.37,3.74,3.21,5.8,.45,.45,.73,.99,.82,1.62,.41,.31,.56,.77,.69,1.24,.28,.36,.54,.73,.53,1.22,.73,1,1.25,2.1,1.6,3.28,1.17,2.51,2.4,5,3.49,7.54,.52,1.21,.38,2.57,0,3.79-.25,.81-.22,1.41,.23,2.05,.56,.32,.63,.76,.34,1.3-.19,.62,.53,1.14,.19,1.78,.38,1.28,.89,2.55,.6,3.93,.17,1.27,1.23,2.35,.78,3.75,.57,.4,.68,.92,.44,1.55,.4,.92,1.17,1.24,2.1,1.33,2.94-.11,4.08-.97,4.35-3.18,.1-.78,0-1.16-.92-1.4-2.81-.72-3.55-2.43-2.88-6.11,.42-2.28,1.46-2.97,4.31-2.85,3.82,.16,5.62-2.14,5.07-6.48-.36-2.86,.38-4.28,2.86-5.36,.52-.23,1.15-.81,1.66-.3,.44,.44,.33,1.39,0,1.72-2.57,2.5-3.01,5.5-2.56,8.9,.11,.82-.93,1.59-1.77,2.1-1.36,.84-2.82,1.28-4.42,1.39-1.23,.09-2.36,.59-2.56,1.92-.19,1.24,.2,2.32,1.41,3.12,2.4,1.61,2.53,3.92,.54,5.92-.74,.74-1.61,1.42-1.84,2.54,.05,.28-.14,.37-.35,.45,0,.13-.02,.25-.06,.37,.14,.48,.26,.96-.32,1.24-.03,.26-.06,.52-.09,.78-.09,.53-.17,1.07-.26,1.6,.39,.2,.31,.53,.24,.85,0,.54,0,1.09,0,1.63,.07,.33,.16,.66-.21,.88,.08,.95,1.04,1.67,.71,2.73,1.22-.14,1.42,1.87,2.82,1.33,.52-.46,.12-1.16,.44-1.68-.05-.95,.17-1.9,1.22-2,1.11-.1,1.27,1.03,1.55,1.81,.67,1.82-.6,2.99-1.54,4.26,.64,.33,.41,1.11,.8,1.56,.41,.2,.43,.41,.02,.64v.11c.94,.14,1.56,.53,1.28,1.64,2.14,4.04,2.32,8.37,1.93,12.79-.03,.67-.06,1.35-.09,2.02,.03,.14,.06,.28,.09,.42,.14,.13,.28,.27,.43,.4h-.01c.15,.13,.3,.26,.45,.4,.12,.15,.23,.3,.35,.45,.36,.11,.47,.41,.54,.73,.66,.7,1.06,1.52,1.04,2.51,.04,.27,.09,.53,.13,.8,.76,1.92-.13,3.91,.22,5.84,.07,.39,.08,.86,.52,1.04,.56,.22,.88-.22,1.17-.58,.25-.32,.36-.75,.64-1.03,.43-.44,.68-1.47,1.51-.96,.7,.43,.97,1.34,.71,2.18-.15,.5-.57,.92-.88,1.36-1.68,2.32-3.16,4.74-4.19,7.43-.48,1.26-.15,2.32,.85,3.09,.96,.74,1.78,.07,2.55-.51,1.68-1.28,3.56-1.54,5.59-1.2,.65,.11,1.22,.24,1.23,1.05,.01,.86-.56,.95-1.23,.96-.47,0-.95,.04-1.42,.13-.6,.11-1.34,.22-1.16,1.07,.16,.77,.71,1.12,1.54,.81,.31-.12,.64-.24,.98-.26,.62-.05,1.37-.05,1.5,.7,.13,.78-.24,1.47-1.11,1.68-.46,.11-.95,.09-1.41,.18-1.97,.39-2.53,1.54-1.43,3.2,.53,.79,.68,1.58,.79,2.47,.09,.81-.03,1.74,.88,2.42,.26-.44,.5-.77,.65-1.13,.31-.7,.52-1.43,1.58-1.04,.99,.36,.48,1.12,.53,1.72,.05,.59-.32,1.01-.68,1.43-.8,.93-.93,1.88,.22,2.57,1.19,.72,1.92-.11,2.45-1.04,.58-1.02,.77-2.17,.85-3.33,.05-.7,.27-1.12,1.1-1.12,.97,0,.89,.59,.84,1.22-.05,.68-.13,1.42,.44,1.91,1.75,1.52,1.11,3.51,.39,4.94-.75,1.5-1.32,2.96-1.49,4.56-.09,.88-.37,1.44-1.04,2.04-2.56,2.28-2.57,7.53-.09,9.81,.59,.55,1.04,1.14,.72,1.94-.31,.79-1.05,.41-1.61,.39-1.8-.06-3.08,.33-3.43,2.48-.24,1.47-.73,3.04-2.6,3.54-.8,.22-.8,.96-.43,1.69,.4,.81,.99,1.44,1.61,2.08,3.87,3.94,7.47,8.08,9.75,13.2,1.54,3.47,2.52,7.04,1.62,10.87-1.56,6.61,.23,12.2,5.09,16.86,.59,.57,1.16,1.12,1.56,1.85,2.16,3.95,5.13,7.17,8.85,9.68,.98,.66,1.39,1.4,1.57,2.59,.89,5.83,2.42,11.4,6.62,15.9,2.39,2.56,4.01,5.58,4.9,9.04,.69,2.68,1.67,5.32,3.59,7.45,.7,.78,1.48,1.5,2.63,1.1,1.26-.44,1.36-1.56,1.38-2.68,.02-1.53-.45-2.95-1-4.34-2.01-5.09-4.95-9.66-8.04-14.13-.73-1.06-1.07-2.12-1.09-3.4-.1-5.71-.3-11.41-.38-17.12-.02-1.19-.34-1.98-1.31-2.72-3.52-2.69-5.57-6.4-7-10.52-.21-.6-.2-1.13,.04-1.75,1.95-5.01,1.72-10.26,1.54-15.49-.02-.44-.23-.92-.46-1.31-2.64-4.53-1.12-8.59,3.84-10.09,1.17-.35,1.68-.96,1.58-2.2-.07-.81-.05-1.64,.09-2.44,.37-2.05,2.14-3.48,3.9-2.93,3.05,.96,4.97-.36,6.47-2.77,.85-1.36,2-2.4,3.3-3.27,2.33-1.54,4.05-1.11,5.34,1.39,1.34,2.59,1.8,5.42,1.73,8.29-.05,1.96,.71,3.03,2.51,3.54,.52,.15,.98,.47,1.5,.63,2.44,.78,4.71,1.34,7.06-.66,1.98-1.68,4.06-1.07,5.63,1.03,1.12,1.51,1.68,3.26,2.01,5.07,.36,2,.57,4.03,.83,6.05,.41,3.24,2.19,4.13,4.9,2.29,1.67-1.14,3.26-2.44,4.73-3.83,1.15-1.08,1.95-2.77,.85-4.03Zm-37.46-175.81c-.21,1.02-.38,2.24-1.83,2.34-1.12,.07-2.04-.27-2.39-1.44q-1.13-3.74-5.08-3.86c-.86-.03-1.56-.1-2.32-.84-1.04-1.01-2.57-1.05-3.64,.14-1.02,1.14-.69,2.39,.28,3.48,.61,.69,1.43,.99,2.27,1.29,1.64,.58,2.5,1.79,2.7,3.49,.11,.96-.36,1.56-1.31,1.72-.83,.14-1.39-.09-1.67-1.03-.34-1.16-.76-2.34-1.7-3.2-.72-.66-1.55-.97-2.36-.24-.72,.65-.35,1.28,.18,1.94,.93,1.18,1.08,2.34-.43,3.25-.98,.59-.65,1.56-.31,2.17,1.09,1.97-.2,3.3-1.09,4.73-.32,.53-1.65,.84-.41,1.61,.71,.44,1.61,.69,2.35-.29,.52-.69,.13-2.29,1.49-2.04,1.43,.26,.71,1.67,.84,2.59,.18,1.19,1.45,1.08,2.09,1.83-.22,.26-.29,.43-.4,.46-.89,.22-1.71,.52-1.87,1.58-.05,.3,.15,.52,.46,.54,.97,.07,1.9,0,2.68-.7,.49-.44,.68-1.01,.68-1.64,0-1.13,.72-1.68,1.66-1.65,1.04,.04,1.2,.86,1.01,1.8-.21,1.07,.48,1.43,1.4,1.58,.88,.14,1.73,.4,2.33,1.13,.89,1.07,.89,3.44,0,4.18-.8,.67-3.31,.08-4.27-1.03-.55-.63-.78-1.41-1.05-2.55-1.01,1.19-2.01,1.02-3.22,.43-1.46-.71-2.84,.14-3.24,1.74-.11,.46-.1,.94-.15,1.41-.06,.61-.11,1.32-.69,1.61-.7,.34-1.05-.38-1.47-.78-.49-.47-.98-.94-1.46-1.42-.65-.64-1.18-1.31-.83-2.32,.33-.99,1.14-1,1.97-1.08,.44-.04,.96,.16,1.54-.61-2.12-.53-2.3-3.23-4.53-3.64-.8-.15-.87-.66-.98-1.3-.46-2.78-1.54-5.08-4.63-5.74-.91-.19-.92-.91-.94-1.58-.04-1.02,0-2.04,1.23-2.48,1.32,3.84,2.41,4.1,5.55,1.37-.35-.58-1.04-.6-1.56-.89-1.11-.62-1.69-1.54-1.14-2.69,.93-1.91-.03-2.42-1.65-2.67-.55-.09-1.45,.23-1.53-.6-.08-.85,.8-.95,1.45-1.1,.71-.16,1.58-.09,1.61-1.16,.02-1-.68-1.42-1.47-1.72-.5-.19-1.03-.35-1.56-.44-1.1-.19-1.46-.57-1.07-1.8,.6-1.88-1.09-4.13-3.04-4.34-2.46-.26-3.29-1.87-2.04-3.92,.86-1.4,.53-2.63-.97-3.29-.51-.23-1.37-.6-1.21-.89,1.22-2.15-1.14-2.34-1.77-3.45-.71-1.24-.71-2.6-.62-3.96,.16-2.36-.55-4.3-2.71-5.5-.77-.43-.96-1.08-1-1.86-.12-2.16-.21-4.28-1.47-6.23-.64-.98-.7-2.32-.62-3.57,.03-.48,.04-1.05,.5-1.26,.53-.24,.8,.34,1.14,.64,.85,.75,.96,1.77,.97,2.8,.03,3.08,1.75,5.62,2.93,8.25,.95,2.11,1.9,4.18,2.57,6.39,.08,.26,.11,.62,.29,.74,2.16,1.43,2.09,3.98,3.05,6.01,.44,.92,.98,1.61,2.09,2.02,1.41,.52,2.82,1.43,1.27,3.31-.48,.58-.16,1.13,.47,1.21,2.1,.25,2.55,1.78,2.76,3.46,.17,1.41,.82,2.44,2.06,3.07,1.37,.69,2.19,1.71,2.5,3.24,.25,1.22,1.05,2.19,1.84,3.13,.22,.27,.48,.53,.85,.4,.49-.17,.49-.64,.42-1.02-.23-1.17-.96-2.08-1.72-2.95-.4-.46-.9-.84-1.05-1.47-.14-.56-.11-1.13,.43-1.45,.62-.36,1.1,.07,1.34,.54,.95,1.9,2.29,1.45,3.51,.5,1.3-1.02,1.41-2.23,0-3.39-.92-.75-.93-1.41,.11-2.26,1.09-.9,.91-2.21-.54-2.39-1.87-.23-1.93-1.24-1.86-2.63,.07-1.37,0-2.65-1.99-2.26-.54,.11-.91-.21-.96-.79-.05-.57-.26-1.13-.75-1.39-1.57-.84-1.77-2.03-1.14-3.57,.39-.97-.08-1.75-.9-2.26-1.15-.71-1.38-1.62-.68-2.74,.81-1.31,.49-2.31-.77-3.09-1.32-.82-1.63-2.09-1.55-3.52,.03-.5,.31-.93,.82-1.06,.63-.15,.79,.36,.96,.81,.07,.19,.07,.42,.18,.58,.42,.67,.87,1.69,1.78,1.18,.79-.43,.69-1.43,.08-2.14-.49-.57-.88-1.06-.18-1.72,1.08-1.03,.53-1.78-.45-2.44-.17-.11-.35-.21-.52-.32-3.21-2.11-3.07-4.34,.39-6.37,.52,.96-.01,2.87,1.28,2.88,1.42,0,.94-1.8,1.2-2.84,.08-.33,.06-.71,.56-.65,.35,.04,.68,.16,.75,.56,.15,.8,.54,1.48,1.38,1.57,1.62,.17,1.19,1.33,1.22,2.29,.04,1.29-.97,.93-1.6,.89-1.55-.1-1.8,.86-1.87,2.05-.08,1.34,.63,1.79,1.88,1.74,.71-.03,1.69-.19,1.63,.95-.05,.83,.71,1.97-1.03,2.36-1.28,.28-.91,1.76-.85,2.8,.06,1.06,.89,1.1,1.65,1,1.43-.18,1.82,.35,1.82,1.8,0,2.41,1.04,4.61,1.92,6.81,.81,2.02,1.48,3.94-.53,5.77-.92,.84-.25,1.73,.69,2.02,1.2,.37,2.35,.66,2.7,2.24,.28-.34,.41-.42,.41-.51,.04-.81-.75-1.91,.4-2.35,1.4-.54,1.45,.89,1.75,1.67,.45,1.14,2.21,1.48,1.91,2.92-.3,1.45-1.97,1.23-2.92,1.92-.91,.66-1.29,1.49-.98,2.65,.3,1.14,1.13,1.66,2.12,1.45,2.22-.47,3.5,.47,4.51,2.32,.43,.8,1.15,1.55,2.2,1.66,.87,.09,1.77,.24,1.53,1.38Z" style="fill: rgb(51, 87, 255);"></path><polygon data-v-6e8d9ed5="" points="452.65 570.2 452.65 570.19 452.64 570.19 452.65 570.2" style="fill: rgb(51, 87, 255);"></polygon><path data-v-6e8d9ed5="" d="M502.04,420.19s0,0,.01,0c0,0,0,0,0,0l-.02,.02Z" style="fill: rgb(51, 87, 255);"></path><path data-v-6e8d9ed5="" d="M430.51,487.07s0,0,0,0c.01,0,.02,.02,.03,.02l-.03-.03Z" style="fill: rgb(51, 87, 255);"></path><path data-v-6e8d9ed5="" d="M427.4,540.43s0-.02,0-.02c0,0-.01-.02-.02-.03l.03,.05Z" style="fill: rgb(51, 87, 255);"></path><polygon data-v-6e8d9ed5="" points="477.52 703.22 477.52 703.22 477.52 703.22 477.52 703.22" style="fill: rgb(51, 87, 255);"></polygon><path data-v-6e8d9ed5="" d="M490.73,703.53c.71-4.35,.19-8.83,1.41-13.12,.08-.3,.08-.8-.1-.96-1.84-1.63-2.36-4.18-4.14-5.84-.76-.71-.79-1.68-.72-2.65,.2-2.9-.77-5.62-1.29-8.41-.11-.59-.37-1.05-1.1-.83-.8,.24-1.9-.17-2.33,.79-.22,.5,.09,1.19,.55,1.66,1.6,1.66,1.66,5.52,.08,7.18-.53,.56-1.28,1.01-1.97,.53-.78-.53-.81-1.66-.27-2.19,1.84-1.82,.4-3.5,.01-5.24-.16-.74-.74-.9-1.37-.99-.73-.11-.92,.47-1.16,.93-.78,1.5-1.52,3.02-2.27,4.53l-.02,.02c-.32,1.02-.63,2.03-.95,3.05-.32,1.24-.02,2.34,.77,3.33,.79,.4,1.04,1.16,1.31,1.92,0,0-.02,0-.02,0,.54,.47,.86,1.03,.73,1.77,0,.16,0,.31,0,.47,0,0,0,.12,0,.12,.05,.13,.1,.26,.15,.4,.1,.46,.19,.93,.29,1.39,.15,.22,.3,.45,.44,.67,.13,.18,.27,.36,.4,.53,0,0-.01-.02-.01-.02,.45,.24,.5,.7,.61,1.13,0,0-.05-.02-.05-.02l.19,.55,.28,.74c.22,.85,.84,1.09,1.75,.96-.58,1.25-1.44,2.05-2.28,2.86-.37,1.18-.84,2.31-1.59,3.31,0,0,.04,.08,.04,.08-.14,.38-.18,.82-.58,1.05-.48,2.56,1.33,4.42,2.03,6.62,.12,.39,.57,.27,.9,.29,2.19,.18,1.6-1.73,1.81-2.73,.38-1.85,.95-2.07,2.53-1.1,2.88,1.78,5.41,.49,5.94-2.78Z" style="fill: rgb(51, 87, 255);"></path><path data-v-6e8d9ed5="" d="M479.62,698.8s.02-.01,.02-.02c0,0,0,0,0,0,0,0-.03,.03-.03,.03Z" style="fill: rgb(51, 87, 255);"></path><polygon data-v-6e8d9ed5="" points="473.8 677.89 473.81 677.88 473.81 677.88 473.8 677.89" style="fill: rgb(51, 87, 255);"></polygon><path data-v-6e8d9ed5="" d="M476.71,669.17c-.08-1.25-.18-2.23,.8-3.05,3.27-2.76,2.89-6.5,2.79-10.17,0,0,.02,0,.02,0-.11-.16-.21-.31-.32-.47-.1-.05-.14-.13-.12-.25-.28-.46-.55-.91-.83-1.37-.76-.92-.94-2.63-2.8-2.07,.16,.5,.03,.89-.42,1.17,0,0-.02,.05-.02,.05-.12,.15-.24,.29-.35,.44h.01c-.14,.14-.27,.29-.41,.44,0,0,.04-.04,.04-.04-.16,.26-.31,.53-.47,.79,0,0,0,.01,0,.01-.22,.65-.57,1.22-1.08,1.69-.04,.25-.08,.5-.13,.75,.29,.2,.4,.48,.39,.82h0c.55,.77,.9,1.62,1.1,2.54,0,0,.06,.09,.06,.09l-.06,.09c.12,.3,.24,.6,.36,.9,.23,.41,.29,.83,.14,1.28-.04,.77-.26,1.47-.75,2.07,.03,.15,0,.27-.12,.37-.25,.96-.78,1.77-1.45,2.48-.14,.52-.51,.87-.91,1.19-.04,1.09-.08,2.18-.12,3.27,0,.28,0,.56,.01,.83,.02,.26,.03,.52,.05,.78,.2,.52,.41,1.04,.3,1.61-.03,.29-.06,.58-.1,.87,.11,.73,.22,1.47,.33,2.2,.39-.21,.77-.42,1.16-.63,2.1-2.53,3.12-5.5,2.9-8.72Z" style="fill: rgb(51, 87, 255);"></path><path data-v-6e8d9ed5="" d="M382.12,573.65s0,0,0,0c.02-.01,.03-.02,.05-.03,0,0-.06,.04-.05,.04Z" style="fill: rgb(51, 87, 255);"></path><path data-v-6e8d9ed5="" d="M392.64,616.29s-.01,0-.02,0c0,0,0,0,0,0l.02-.02Z" style="fill: rgb(51, 87, 255);"></path><path data-v-6e8d9ed5="" d="M393.84,602.27c-.28-2.65-.82-5.32-2.82-7.23-1.58-1.51-2.24-3.2-1.98-5.27,.16-1.22-.12-2.26-.63-3.32-.87-1.79-2.01-3.33-3.62-4.57-1.98-1.52-2.21-2.87-.8-4.87,.55-.78,.39-1.53,.47-2.31-.12-.27-.25-.54-.37-.82-.13-.14-.26-.28-.39-.42h-.01c-.52,.05-1.04,.11-1.55,.17-1.62,1.03-1.36,2.78-1.65,4.33-.02,.54-.05,1.09-.07,1.63,.02,.47,.06,.94,.05,1.41-.13,7.83-1.03,15.63-.62,23.51,.22,4.17-1.03,8.42-1.62,12.64,.29,2.14,.46,4.26-.93,6.14-.17,.97-.68,1.76-1.34,2.47-.08,.14-.16,.28-.24,.42-.27,.4-.55,.81-.82,1.21-.04,.33-.13,.67-.12,1,.04,.97-.46,2.3,.67,2.73,1.23,.47,1.86-.73,2.4-1.65,.77-1.3,1.88-2.07,3.37-2.33,1.09-.19,1.96-.82,1.96-1.94,0-1.16,.87-1.41,1.53-1.77,.27-.15,.77-.06,.8-.51,.12-1.52,1.24-1.32,2.23-1.37,1.21-1.33,3.18-1.82,4-3.59-.07-.75,.06-1.4,.88-1.69-.12-.85-.03-1.62,.81-2.11,0-.24-.01-.47-.02-.71-.47-.26-.43-.56-.08-.89,.48-3.42,.87-6.86,.51-10.32Z" style="fill: rgb(51, 87, 255);"></path><path data-v-6e8d9ed5="" d="M377.37,582.17s0,.01,.01,.02l.08,.04s-.1-.06-.1-.06Z" style="fill: rgb(51, 87, 255);"></path><path data-v-6e8d9ed5="" d="M376.48,581.71s.07,.03,.1,.05c0,0,0,0,.01-.01,0,0-.11-.04-.11-.04Z" style="fill: rgb(51, 87, 255);"></path><path data-v-6e8d9ed5="" d="M375.08,588.39c.67,1.48,1.39,1.22,2.11,.06,.39-.62,.74-1.27,1.1-1.91,.14-1.22-.18-2.4-.35-3.59-.18-.25-.37-.5-.55-.76-.27-.14-.54-.29-.81-.43-1.38,1.19-2.24,5-1.5,6.63Z" style="fill: rgb(51, 87, 255);"></path><path data-v-6e8d9ed5="" d="M369.84,585.1c.45,1.13,1.58,1.34,2.67,1.55,.83,.16,1.4-.19,.92-.89-1.22-1.78-.47-3.32,.24-4.93l.03-.14c-.34-.86-.79-1.44-1.73-.63-.19,.39-.39,.78-.58,1.17,.02,.25-.09,.39-.33,.43,0,0,0,0,0,0-.14,.23-.24,.5-.43,.68-.8,.77-1.19,1.73-.79,2.75Z" style="fill: rgb(51, 87, 255);"></path><path data-v-6e8d9ed5="" d="M413.72,557.68c-1.22-.38-2.29,.08-3.25,.74-.69,.47-1.9,.73-1.8,1.67,.09,.83,1.08,1.31,1.93,1.62,.38-.08,.76-.16,1.14-.24,.68-.71,1.36-1.42,2.04-2.13,.06-.18,.12-.36,.19-.54-.08-.38-.15-.75-.23-1.12,0,0-.01,0-.01,0Z" style="fill: rgb(51, 87, 255);"></path><polygon data-v-6e8d9ed5="" points="437.1 595.9 437.1 595.91 437.1 595.91 437.1 595.9" style="fill: rgb(51, 87, 255);"></polygon><path data-v-6e8d9ed5="" d="M437.98,580.02c-1.12-3.51-2.63-6.85-4.26-10.14-.08-.16-.16-.31-.24-.47-1.89-2.88-3.65-5.85-5.84-8.52-.6-.73-1.03-1.57-2.28-1.12-1.24,.45-1.88,1.12-1.89,2.5-.02,2.6-.27,5.32-1.64,7.46-2.34,3.66-1.49,7,.32,10.33,1.36,2.5,2.55,5.06,3.57,7.7,.3,.19,.42,.47,.43,.81,.14,.27,.28,.54,.42,.81,.3,.51,.61,1.02,.91,1.53,0,0-.06-.01-.06-.01,.11,.19,.22,.37,.34,.56,.53,.7,1.06,1.41,1.59,2.11,.1,.1,.2,.21,.31,.31,.59,.48,1.17,.96,1.76,1.43l.4,.26c.43,.24,.87,.48,1.3,.72l-.02-.02c.53,.14,1.06,.29,1.59,.43,.26,0,.52-.01,.78-.02,.41-.14,.81-.28,1.22-.42,.14-.11,.28-.23,.42-.34,.13-.14,.27-.27,.4-.41,.48-1.76,2.26-2.53,3.08-4.02,.02-.43,.05-.86,.07-1.28-.5-3.36-2.24-6.4-2.6-9.79-.03-.13-.05-.26-.08-.39Z" style="fill: rgb(51, 87, 255);"></path><path data-v-6e8d9ed5="" d="M394.01,581.6c-1.49-.73-2.21-.27-2.14,1.38,.1,2.25,1.08,4.3,1.62,6.45,.17,.7,.72,.76,1.28,.48,1.61-.83,2.59-2.1,2.75-3.94-.25-2.22-1.69-3.48-3.52-4.38Z" style="fill: rgb(51, 87, 255);"></path><path data-v-6e8d9ed5="" d="M371.47,587.8c-1.43,.2-2.24,1.27-2.43,2.61-.2,1.5,1.25,3.04,2.65,3.05,1.5,.02,1.97-.93,2.1-2.36,.04-1.18-1.39-3.43-2.33-3.3Z" style="fill: rgb(51, 87, 255);"></path><text data-v-6e8d9ed5="" transform="matrix(1 0 0 1 480 604.9903)" class="st1 st2">চট্টগ্রাম</text></g><g data-v-6e8d9ed5=""><polygon data-v-6e8d9ed5="" points="282.51 662.39 282.51 662.4 282.5 662.4 282.51 662.39" style="fill: rgb(51, 255, 87);"></polygon><path data-v-6e8d9ed5="" d="M295.34,629.31c-.11-1.57,.37-2.85,1.33-4.33,1.23-1.89,1.44-4.45,2.94-6.42,.53-.69-.16-1.5-.99-1.91-1.27-.64-1.88-1.82-1.3-3.04,1.01-2.12,.99-4.32,1.06-6.54,.02-.68-.1-1.34,1-1.32,1.04,.01,1.23,.51,1.24,1.38,0,1.35,.11,2.71,.12,4.06,.01,1.63,.23,3.15,.9,4.71,1.52,3.53-.3,6.57-1.82,9.6-.24,.48-.59,.9-.9,1.35-1.41,2.08-1.2,2.81,1.1,3.75,.38-.02,.66,.15,.82,.49,.49,.23,.78,.6,.86,1.14,.72,1.56,1.7,1.54,2.79,.41,2.59-2.7,4.57-5.94,5.3-9.49,.72-3.49,2.52-5.48,5.68-6.01,2.46-.42,3.46-1.87,4.55-3.74,5.31-9.16,7.06-18.43,1.29-28.08l-.02-.06c-.15-.04-.21-.14-.16-.29-.51-.94-.37-1.93-.21-2.92-.05-.58-.06-1.14,.34-1.63,.14-.66,.15-1.38,.43-1.96,.91-1.86,.45-3.57-.46-5.23-2.56-4.7-6.86-5.99-11.83-6.04-1.29-.01-1.76,.38-1.69,1.74,.11,2.25-.1,4.5-1.46,6.43-.5,.71-1.3,1.62-2.1,1.16-.83-.47-.39-1.51-.03-2.37,.61-1.48,1.52-2.9,1.4-4.61-.28-3.93-.23-4.01,3.52-4.49,3.42-.44,5.1-3.28,3.31-6.24-1.17-1.94-1.61-3.92-1.97-6.03-.24-1.4-.56-2.8-1.05-4.13-.68-1.87-1.7-3.58-3.62-4.46-.89-.41-1.96-1-2.35,.67-.12,.53-.56,.9-1.05,.5-1.32-1.07-2.57-.79-3.96-.13-.93,.44-1.78-.16-2.19-.99-.42-.87-.52-1.9,.3-2.64,.73-.65,1.59-.34,2.22,.22,.58,.51,1.05,1.13,1.9,.58,.79-.51,.77-1.34,.81-2.17,.04-.69-.82-1.38-.03-2.07,2.42-2.12,2.86-4.9,2.87-7.94,.02-3.32,2.98-5.13,5.54-3.51,1.71,1.08,3.39,.89,4.49-.5,1.05-1.34,.74-2.42-1.16-4.06-.48-.07-.9-.25-1.2-.63-.25-.62-.5-1.24-.75-1.86-.11-.06-.15-.15-.12-.27-.12-.18-.23-.36-.35-.54,0,0-.01-.02-.01-.02-.1-.12-.2-.25-.29-.37-.49-.72-1.6-.97-1.58-2.09-.03-.4-.06-.79-.1-1.19-.04-.33-.08-.66-.12-.99-.09-.21-.18-.43-.27-.64-.03-.14-.06-.28-.1-.42-.12-.28-.24-.55-.36-.83,0,0-.02-.05-.02-.05-.15-.05-.21-.15-.19-.31-.35-.57-.7-1.14-1.05-1.71-.96-1.67-1.39-3.47-1.32-5.38,.04-1.21,.36-2.26,1.72-2.63,.29-.13,.57-.27,.86-.4-2.98-1.17-4.21-.48-4.52,2.64-.11,1.16-.56,2.11-1.4,2.84-1.11,.96-2.13,1.25-3.1-.38-1.42-2.41-3.46-4.34-5.46-6.27-1.62-1.57-3.2-1.15-3.65,1.02-.15,.71-.54,.83-1.07,.98-.78,.21-1.55,.47-2.56,.78,1.02,1.33,1.94,2.54,2.87,3.75,.32,.42,.79,.8,.29,1.41-1.11,1.36-2.12,2.82-3.34,4.07-1.35,1.39-3.06,1.66-4.88,.92-.94-.38-1.89-.76-2.79-1.22-2.05-1.03-2.89-3.5-1.4-5.99,1.65-2.76-.69-3.78-1.79-5.24-1.12-1.47-2.7-.71-4.08-.09-.68,.31-1.32,.69-2.02,.95-1.73,.63-3.39,1.28-3.81,3.41-.08,.42-.46,.89-.83,1.13-2.12,1.4-4.07,2.82-4.03,5.8,.01,.76-1.02,1.41-1.88,1.17-1.27-.36-1.64,.35-2.1,1.24-1.46,2.83-2.97,5.63-4.46,8.44-2.42,4.56-6.14,6.04-11.06,4.42-2.48-.82-4.62-2.24-6.71-3.75-.85,2.67,1.29,4.03,3.53,4.69,2.69,.79,3.84,2.83,2.81,5.41-.3,.75-.66,1.58-1.24,2.08-1.42,1.23-1.09,2.45-.21,3.7,1.09,1.54,1.27,3.19,.4,4.79-.77,1.42-.73,2.83-.65,4.33,.07,1.4,.61,2.99-.18,4.18-2.11,3.16-.13,6.03,.35,9.01,.05,.3,.3,.66,.57,.82,1.42,.84,1.51,2.3,1.76,3.68,.28,1.6,.52,3.21,.78,4.81,.59,3.57,.26,3.98-3.39,4.13-.2,0-.41-.01-.61-.01-2.85,.02-2.77,0-2.34,2.83,.29,1.9,1.85,1.31,2.86,1.56,2.59,.66,3.59,3.11,1.95,5.3-1.1,1.46-2.18,2.95-3.7,4.03,.11,.92-.11,2.09,.9,2.54,1.13,.5,1.85-.53,2.61-1.16,.62-.52,1.17-1.11,1.44-1.93,.52-1.56,1.41-2.94,2.43-4.21,1.86-2.3,3.93-4.42,4.77-7.42,.36-1.28,1.35-2.4,3-2.28,.64,.05,1.23,.27,1.31,1.03,.18,1.61-.25,3.04-1.74,3.81-.91,.47-1.17,1.04-1.31,2-.72,5.12-3.68,8.81-7.82,11.62-1.35,.91-2.33,2.02-3.09,3.4-1.92,3.49-3.06,7.23-3.6,11.16-.08,.6-.14,1.25,.02,1.81,1.38,4.67,2.18,9.51,4.2,14,1.04,2.31,1.08,4.59,.17,7.09-1.06,2.92-.07,5.88,.9,8.72,.22,.64,.48,1.26,.72,1.89,1.1,1.64,2.06,3.38,3.42,4.84l.31,.43c3.01,.03,4.15-1.76,2.91-4.58-1.35-3.08-.03-7.06,2.96-8.58,.98-.5,1.45-1.04,1.4-2.15-.05-1.08,.06-2.17,.09-3.26,.1-3.05,2.79-6.35,5.76-6.99,.61-.13,1.46-.51,1.85,.19,.34,.62-.17,1.31-.56,1.86-.4,.56-.98,.9-1.6,1.22-3.02,1.56-3.93,3.43-3.3,6.85,.21,1.15,.34,2.29,.07,3.43-.35,1.49-1.23,2.55-2.71,3.05-2.28,.76-3.07,2.59-2.04,4.75,.74,1.56,3.54,3.33,5.19,3.1,2.1-.3,2.69-2.04,3.23-3.76,.06-.19,.14-.4,.12-.59-.49-4.51,2.61-6.99,5.38-9.7,1.57-1.53,3.68-2.56,4.43-4.88,.25-.78,1.13-.8,1.92-.83,1.74-.08,4.01,.77,5.07-.39,.91-1,.52-3.21,.67-4.89,.15-1.65,.72-3.06,2.28-3.83,1.01-.5,1.94-.19,1.76,1.02-.43,2.87-.69,5.87-1.78,8.51-.97,2.36-3.67,2.36-5.93,1.98-1.37-.23-2.11,.15-2.88,1.17-2.3,3.03-5.11,5.64-7.19,8.84-.86,1.32-1.42,2.7-1.7,4.3-.52,2.95-1.4,5.67-5.19,6.06-1.8,.19-2.79,2.97-1.92,4.61,.88,1.66,.94,3.34,.16,5.04-.78,1.69-.14,3.02,1.7,3.54,1.35,.38,2.72,.43,4.1,.53,.1-.07,.21-.1,.33-.09,0-.61,.33-.98,.88-1.2,1.42-1.9,2.13-4.08,2.08-6.42-.03-1.4,.72-1.87,1.81-1.83,1.25,.04,.81,1.19,.84,1.86,.1,3.12-1.13,5.56-3.96,7.08-.14,.86-.27,1.72-.41,2.57l.6,1.17c.38,.11,.63,.36,.73,.74,.53,.33,1.05,.66,1.58,.99,.31-.1,.36,.14,.44,.34,.95,.1,1.68,.66,2.47,1.11,1.04,.39,2.28-.55,3.23,.48,.53,0,1.06,.01,1.59,.02,1.56-.66,3.26-.51,4.88-.83l.34-.38c.09-.32,.05-.71,.47-.85,.47-1.04,1.52-1.41,2.36-2.03,.3-1.39,1.58-1.73,2.55-2.41,.4-.56,.8-1.13,1.19-1.69,2.08-4.73,3.31-9.67,4.11-14.76,.72-4.53,2.44-8.7,5.7-12.09,1.65-1.09,1.96-2.67,1.83-4.54Z" style="fill: rgb(51, 255, 87);"></path><path data-v-6e8d9ed5="" d="M355.42,577.62c-2.61-1.33-4.51-3.42-6.38-5.54-1.63-1.85-3.13-3.92-3.16-6.45-.03-2.61-1.39-4.14-3.34-5.41-1.54-1.01-3.22-1.74-4.99-2.23-1.06-.29-1.53-.81-1.6-1.96-.12-2.23-.41-4.46-.67-6.68-.87-7.55-3.08-9.18-10.6-8.7-3.24,.21-4.19,1.71-4.53,4.18-.64,4.65-2.09,9.11-2.67,13.76-.3,2.4,.23,3.44,2.5,4.44,.54,.24,1.04,.32,1.22,1.12,.69,3.09,1.7,4.11,4.76,4.21,1.93,.07,2.96,1.09,3.92,2.43,2.06,2.88,2.42,6.26,2.82,9.63,.33,.5,.38,1.05,.31,1.63,.03,.27,.05,.55,.08,.82,.48,1.59,.49,3.23,.4,4.84-.23,4.07,.07,8.13,.12,12.2,.02,2.24-.08,4.48-.13,6.71-.02,.75-.15,1.48-.59,2.12-2.93,4.28-5.11,8.91-6.41,13.95-.32,1.24-.3,2.3,.57,3.21,.9,.94,.78,1.92,.41,3.02-.35,1.07-1.14,1.84-1.78,2.7-1.48,2-2.64,4.09-2.42,6.69,.07,.81,.04,1.76,1.23,1.71,.96-.04,2.3,.17,2.34-1.27,.05-2,1.46-2.93,2.69-4.05,.5-.58,1-1.15,1.5-1.73,.6-1.17,1.21-2.34,1.88-3.64,1.18,2.09,.13,3.7-.69,5.34-.12,.48-.3,.94-.72,1.25-.77,1.3-1.72,2.45-2.69,3.61-.91,1.09-1.3,2.5-.42,3.74,.92,1.3,2.4,1.12,3.69,.63,.77-.29,1.47-.79,2-1.58,1.03-1.54,1.77-3.2,2.13-4.99,.23-1.11,.72-1.84,1.8-2.18,.52-.49,1.12-.84,1.84-.95,.65-.53,1.51-.94,2.23-.72,1.73,.52,2.34-.43,2.82-1.74,.1-.26,.2-.53,.3-.79,.16-.73,.43-1.42,.97-1.97,.08-.53,.38-.93,.78-1.26,.18-.64,.69-.99,1.21-1.33,.19-.24,.37-.47,.56-.71,.1-.13,.2-.26,.3-.39h0c.12-.18,.24-.35,.36-.52,2.46-4.42,4.42-8.97,4.31-14.21-.02-1.06,.84-2.11,1.15-3.21,.68-2.39,.78-4.87,.27-7.26-.49-2.32,0-4.37,.71-6.51,.68-2.05,1.1-4.18,1.63-6.28,.06-.53,.13-1.06,.19-1.59,.01-2.02,.08-4.05-.51-6.02-.56-.71-.97-1.71-1.7-2.08Z" style="fill: rgb(51, 255, 87);"></path><path data-v-6e8d9ed5="" d="M305.93,651.61c.04-1.37,.61-2.04,1.52-2.8,.96-.81,2.1-1.58,1.89-3.7-.07-1.44-.27-3.5-2.36-4.46-1.49-.69-2.67-1.57-3.41-3.03-.27-.54-.53-.79-1.25-.59-2.9,.81-3.93,3.36-2.27,5.84,2.41,3.6,2.23,4.63-1.28,7.36-1.53,1.19-1.72,3.78-.34,4.75,2.41,1.69,7.41-.46,7.5-3.38Z" style="fill: rgb(51, 255, 87);"></path><path data-v-6e8d9ed5="" d="M314.93,643.04c1.24-.94,2.32-2.17,3.09-3.65,2.17-4.16,1.82-8.65,1.93-13.09,.01-.39,.09-.87-.41-1.03-.56-.18-1.11-.06-1.44,.46-1.71,2.76-4.32,4.31-7.18,5.65-1.21,.57-2.01,1.94-1.76,3.34,.29,1.57,1.47,2.31,3.14,2,.41-.61,.84-1.21,1.22-1.84,.41-.67,.98-1.4,1.71-.75,.59,.52,.68,1.54-.05,2.14-.92,.77-1.67,1.76-2.82,2.23-1.89,1.1-1.31,2.68-.5,3.98,.66,1.07,2.24,1.19,3.07,.56Z" style="fill: rgb(51, 255, 87);"></path><path data-v-6e8d9ed5="" d="M322.38,647.11c-.36-.47-.02-1.39-.79-1.51-.74-.12-1.29,.49-1.59,1.08-.6,1.22-1.53,1.49-2.8,1.47-1.35-.02-2.84,.51-3.06,1.89-.34,2.17-.49,4.47-.16,6.62,.34,2.21,.34,2.64-2.03,2.99,.6,1.02,1.15,2.17,2.2,2.03,1.06-.14,1.88-.93,2.29-2.22,.65-2.02,1.81-4.09,3.59-5.06,1.52-.83,1.73-2.34,2.85-3.24,1.89-1.52-.36-2.57-.44-3.86,0-.07-.03-.14-.07-.19Z" style="fill: rgb(51, 255, 87);"></path><path data-v-6e8d9ed5="" d="M298.05,644.99c.17-.46,.58-.98-.19-1.38-.61-.32-1.01-.12-1.41,.33-.68,.76-1.37,1.51-2.07,2.24-3.58,3.76-5.93,8.08-6.1,13.41,.07,.61,.05,1.24,.23,1.81,.25,.78-.07,2.04,1.05,2.18,1.17,.15,1.69-.94,2.12-1.87,.89-1.88,1.16-3.9,1.07-5.95-.06-1.29,.33-2.32,1.07-3.37,1.64-2.33,3.22-4.71,4.23-7.4Z" style="fill: rgb(51, 255, 87);"></path><path data-v-6e8d9ed5="" d="M324.28,583.36c-1.05,1.27-1.01,2.49,.39,3.41,.77,.5,1.04,1.18,1.29,1.96,1.17,3.55,.93,7.26,1.34,10.89,.07,.63-.41,1.81,.58,1.81,1.45,0,.76-1.31,.72-2.06-.09-1.89-.32-3.77-.5-5.81,.5,.12,.81,.27,1.11,.26,.57-.01,1.23,.86,1.63,.16,.39-.68,.31-1.6-.34-2.26-2.36-2.39-3.36-5.54-4.75-8.48-.49,.04-.99,.08-1.48,.11Z" style="fill: rgb(51, 255, 87);"></path><path data-v-6e8d9ed5="" d="M334.98,646.24c-.71-.25-.86,.65-1.19,1.13-.78,1.13-1.61,2.09-3.13,1.03-.6-.41-1.02,.04-1.36,.47-.66,.85-1.14,1.91-1.96,2.55-1.6,1.27-.8,2.32,.05,3.42,.76,.98,1.48,.82,1.97-.26,.22-.48,.26-1.04,.41-1.56,.6-2.16,2.44-3.53,4.56-3.28,1.28,.15,1.03-.99,1.51-1.54-.43-.62-.09-1.69-.87-1.96Z" style="fill: rgb(51, 255, 87);"></path><path data-v-6e8d9ed5="" d="M297.32,635.97c-.68-.12-1.42-.12-1.69,.7-.83,2.46-2.26,4.58-3.68,6.71-.24,.36-.62,.85-.19,1.28,.53,.54,1,.07,1.4-.25,1.71-1.36,3.06-3.05,4.06-4.98,.36-.69,1.31-1.01,1.18-2.09-.02-.62-.29-1.22-1.08-1.37Z" style="fill: rgb(51, 255, 87);"></path><path data-v-6e8d9ed5="" d="M304.83,661.59c-1.06,0-.83,1.04-1.16,1.64-.06,.91-.63,.66-1.16,.52-.54,.15-1.08,.3-1.63,.45,0,0-.06,.06-.06,.06-.02,.09-.08,.12-.17,.09-.67,.49-.76,1.07-.3,1.75,.46,.86,1.29,1.23,2.13,1.6,.06-.23,.18-.38,.45-.31,.91-.56,1.87-1.05,2.72-1.68,.99-.74,.88-1.81,.6-2.86-.19-.71-.68-1.24-1.43-1.24Z" style="fill: rgb(51, 255, 87);"></path><path data-v-6e8d9ed5="" d="M330.92,580.95c-.23-.34-.45-.67-.68-1.01-.52-.08-1-.7-1.57-.12,.09,1.69-1.14,3.37-.05,5.08,.36,.53,.73,1.07,1.2,1.76,.84-1.22,1.95-2.16,1.52-3.78-.33-.59-.44-1.23-.39-1.9l-.02-.02Z" style="fill: rgb(51, 255, 87);"></path><path data-v-6e8d9ed5="" d="M322.92,621.31c-1.87,1.52-2.11,2.68-1.01,4.8,.4,.77,.79,1.55,1.19,2.32,.13-.03,.26-.05,.39-.08,.28-2.12,.57-4.25,.85-6.37,.06-.42,.03-.86-.37-1.08-.44-.24-.74,.16-1.05,.4Z" style="fill: rgb(51, 255, 87);"></path><path data-v-6e8d9ed5="" d="M341.93,653.05c-.8,.12-1.71,.09-1.59,1.52,0,.49,1.26,2.15,1.77,2.03,.93-.22,1.97-.8,1.84-1.73-.12-.83-.6-2.05-2.01-1.83Z" style="fill: rgb(51, 255, 87);"></path><path data-v-6e8d9ed5="" d="M306.62,666.88c.45,.09,.45,.45,.48,.79,.47,.37,.89,.92,1.43,1.08,.95,.28,1.83-.06,2.5-.84,.35-.41,.43-.77,.02-1.23-.85-.95-3.4-.85-4.43,.21Z" style="fill: rgb(51, 255, 87);"></path><polygon data-v-6e8d9ed5="" points="316.8 507.43 316.8 507.42 316.8 507.42 316.8 507.43" style="fill: rgb(51, 255, 87);"></polygon><path data-v-6e8d9ed5="" d="M311.92,514.76c-.03,.27-.06,.53-.1,.8,.11,1.52,1.16,1.81,2.4,1.78,.72-.02,1.44-.12,2.17-.19,.62-.07,1.11,.24,1.62,.51,.81,0,1.63,0,2.44,0,.12-.08,.23-.16,.35-.24,.36-.98,.79-2.03,2.04-1.92,1.16,.1,.77,1.25,.99,1.96,.49,1.62,1.43,2.93,2.78,3.92,1.02,.75,2.13,1.27,3.37,.42,1.35-.92,.3-1.93,.08-2.9-.08-.14-.17-.28-.25-.41-.13-.16-.26-.32-.39-.48-.13-.13-.26-.26-.39-.39-.15-.12-.3-.25-.45-.37-.14-.15-.27-.3-.41-.44,0,0,.01,.02,.01,.02-.22-.29-.44-.57-.65-.86-.13-.07-.19-.18-.17-.33-.7-.69-.86-1.64-1.23-2.49,0,0,.01,.01,.01,.01-.12-.15-.24-.3-.36-.45,0,0-.01-.02-.01-.02-.1-.12-.21-.25-.31-.37-.59-.57-1.08-1.2-1.36-1.98-.17-.27-.35-.55-.52-.82,0,0,.05,.05,.05,.05-.1-.18-.2-.36-.31-.53,0,0,0-.01,0-.01-.09-.13-.17-.25-.26-.38-.45-.7-.91-1.4-1.36-2.1-.14-.12-.28-.24-.42-.36,0,0,0,0,0,0-.19-.12-.37-.24-.56-.35-.22-.04-.44-.08-.65-.13-.54,.18-1.09,.37-1.63,.55-.37,.26-.75,.52-1.12,.78-.16,.13-.33,.26-.49,.39l-.85,.74c-.53,.57-1.05,1.14-1.58,1.71-.13,.17-.27,.33-.4,.5l-1.33,2.34c-.12,.27-.23,.54-.35,.82-.03,.13-.06,.26-.08,.4l-.3,.83Z" style="fill: rgb(51, 255, 87);"></path><path data-v-6e8d9ed5="" d="M307.79,508.76c.15-.04,.3-.08,.45-.12,.25-.17,.5-.34,.75-.51,0,0-.05,.05-.05,.05,.16-.14,.32-.27,.47-.41,.14-.12,.28-.25,.42-.37,.14-.12,.28-.25,.43-.37h.02c.4-.41,.8-.82,1.21-1.22,1.26-1.96,1.1-2.3-1.23-2.54-.27,0-.54,0-.81,0-.55,0-1.1,0-1.64,0-1.14,.98-1.14,4.25-.01,5.5Z" style="fill: rgb(51, 255, 87);"></path><path data-v-6e8d9ed5="" d="M315.15,505l.14-.09h.17c.17-.1,.34-.22,.51-.33,.12-.15,.24-.3,.36-.45,.13-.18,.26-.35,.39-.53,.08-.23,.15-.47,.23-.7,0-.25,.02-.5,.02-.75-.63-1.09-1.28-.78-1.93-.02-.09,.15-.18,.29-.28,.44,0,0,.02-.03,.02-.03-.02,.34-.08,.67-.45,.81-.43,.54-.48,1.08-.01,1.62,.27,0,.55,.02,.82,.03Z" style="fill: rgb(51, 255, 87);"></path><path data-v-6e8d9ed5="" d="M319.59,526.8c-1.42,0-2.52,.36-3.58,1.44-1.66,1.7-3.55,2.91-6.13,1.4-1.31-.76-2.07,.28-2.22,1.49-.21,1.68-.22,3.38-.32,5.07-.02,0-.05,0-.07,0,0,1.36,.02,2.71,0,4.07-.01,.63,.02,1.14,.67,1.55,3.29,2.07,4.52,5.26,4.7,8.98,.02,.47-.08,.97,.47,1.23,.6,.29,1.04-.08,1.47-.4,2.95-2.21,3.74-6.39,1.8-9.52-.5-.81-.64-1.66-.29-2.53,.38-.95,1.27-.6,1.96-.6,4.91,.03,9.53-1.07,13.89-3.36,.94-.49,1.39-1.05,1.4-2.19,0-3.33-.66-4.42-3.87-5.51-3.2-1.09-6.52-1.13-9.86-1.14Z" style="fill: rgb(51, 255, 87);"></path><path data-v-6e8d9ed5="" d="M364.92,612.73c.74,.2,1.2-.33,1.36-.93,.49-1.84,1.73-3.22,2.85-4.65,2.51-3.21,1.44-6.86,1.37-10.38,0-.34-.39-.7-.64-1.02-.85-1.07-1.56-.93-2.07,.31-.62,1.5-.31,3.09-.4,4.77,.14,2.85-.11,5.69-2.37,8.01-.52,.53-.68,1.47-.87,2.25-.17,.69-.05,1.42,.78,1.65Z" style="fill: rgb(51, 255, 87);"></path><path data-v-6e8d9ed5="" d="M367.04,616.31c-.07-.13-.07-.25-.01-.39-.5-.66-1.05-1.34-1.97-1.09-.96,.26-.97,1.16-1.04,1.99-.22,2.59-1.21,4.95-2.22,7.3-.02,.65-.05,1.29-.07,1.94,0,0-.02-.02-.02-.02,.08,.15,.17,.3,.25,.46,.46,.55,1.09,.83,1.73,1.1,.14,.02,.29,.04,.43,.06,.18,0,.36,.02,.54,.03,.22-.1,.44-.19,.66-.29,.35-.31,.7-.63,1.06-.94,.18-.39,.36-.78,.54-1.16,.04-.41,.08-.81,.12-1.22,0-.82,0-1.63,.01-2.45,0-1.36,0-2.72,0-4.09-.07-.13-.07-.26,0-.39,0-.28,0-.56,0-.83Z" style="fill: rgb(51, 255, 87);"></path><path data-v-6e8d9ed5="" d="M371.01,608.84c-.97-.1-1.57,.53-1.6,1.64-.05,1.62-.23,3.24-.36,4.94,.23,.53-.72,1.69,.81,1.7,1.29,0,.83-1.01,.83-1.63-.01-1.66,.61-3.18,.92-4.76,.15-.77,.68-1.76-.61-1.89Z" style="fill: rgb(51, 255, 87);"></path><text data-v-6e8d9ed5="" transform="matrix(1 0 0 1 265.1998 580.5247)" class="st1 st2">বরিশাল</text></g></svg>